999
dxfrw 0.6.3
  0
SECTION
  2
HEADER
  9
$ACADVER
  1
AC1021
  9
$DWGCODEPAGE
  3
ANSI_1252
  9
$INSBASE
 10
0
 20
0
 30
0
  9
$EXTMIN
 10
50.20212744639821
 20
-30.00000000000003
 30
0
  9
$EXTMAX
 10
294.2021274463983
 20
59.30000000000005
 30
0
  9
$LIMMIN
 10
0
 20
0
  9
$LIMMAX
 10
12
 20
9
  9
$ORTHOMODE
 70
    0
  9
$REGENMODE
 70
    1
  9
$FILLMODE
 70
    1
  9
$QTEXTMODE
 70
    0
  9
$MIRRTEXT
 70
    0
  9
$LTSCALE
 40
1
  9
$ATTMODE
 70
    1
  9
$TEXTSIZE
 40
0.2
  9
$TRACEWID
 40
0.05
  9
$TEXTSTYLE
  7
Standard
  9
$CLAYER
  8
EXT
  9
$CELTYPE
  6
ByLayer
  9
$CECOLOR
 62
  256
  9
$CELTSCALE
 40
1
  9
$DISPSILH
 70
    0
  9
$DIMSCALE
 40
1
  9
$DIMASZ
 40
2.5
  9
$DIMEXO
 40
0.625
  9
$DIMDLI
 40
5
  9
$DIMRND
 40
0
  9
$DIMDLE
 40
0
  9
$DIMEXE
 40
1.25
  9
$DIMTP
 40
0
  9
$DIMTM
 40
0
  9
$DIMTXT
 40
2.5
  9
$DIMCEN
 40
0.09
  9
$DIMTSZ
 40
0
  9
$DIMTOL
 70
    0
  9
$DIMLIM
 70
    0
  9
$DIMTIH
 70
    1
  9
$DIMTOH
 70
    1
  9
$DIMSE1
 70
    0
  9
$DIMSE2
 70
    0
  9
$DIMTAD
 70
    0
  9
$DIMZIN
 70
    8
  9
$DIMBLK
  1

  9
$DIMASO
 70
    1
  9
$DIMSHO
 70
    1
  9
$DIMPOST
  1

  9
$DIMAPOST
  1

  9
$DIMALT
 70
    0
  9
$DIMALTD
 70
    2
  9
$DIMALTF
 40
25.4
  9
$DIMLFAC
 40
1
  9
$DIMTOFL
 70
    0
  9
$DIMTVP
 40
0
  9
$DIMTIX
 70
    0
  9
$DIMSOXD
 70
    0
  9
$DIMSAH
 70
    0
  9
$DIMBLK1
  1

  9
$DIMBLK2
  1

  9
$DIMSTYLE
  2
Standard
  9
$DIMCLRD
 70
    0
  9
$DIMCLRE
 70
    0
  9
$DIMCLRT
 70
    0
  9
$DIMTFAC
 40
1
  9
$DIMGAP
 40
0.625
  9
$DIMJUST
 70
    0
  9
$DIMSD1
 70
    0
  9
$DIMSD2
 70
    0
  9
$DIMTOLJ
 70
    1
  9
$DIMTZIN
 70
    0
  9
$DIMALTZ
 70
    0
  9
$DIMALTTZ
 70
    0
  9
$DIMUPT
 70
    0
  9
$DIMDEC
 70
    4
  9
$DIMTDEC
 70
    4
  9
$DIMALTU
 70
    2
  9
$DIMALTTD
 70
    2
  9
$DIMTXSTY
  7
Standard
  9
$DIMAUNIT
 70
    0
  9
$DIMADEC
 70
    0
  9
$DIMALTRND
 40
0
  9
$DIMAZIN
 70
    2
  9
$DIMDSEP
 70
   46
  9
$DIMATFIT
 70
    3
  9
$DIMFRAC
 70
    0
  9
$DIMLDRBLK
  1

  9
$DIMLUNIT
 70
    2
  9
$DIMLWD
 70
   -2
  9
$DIMLWE
 70
   -2
  9
$DIMTMOVE
 70
    0
  9
$DIMFXL
 40
1
  9
$DIMFXLON
 70
    0
  9
$DIMJOGANG
 40
0.7853981633974483
  9
$DIMTFILL
 70
    0
  9
$DIMTFILLCLR
 70
    0
  9
$DIMARCSYM
 70
    0
  9
$DIMLTYPE
  6

  9
$DIMLTEX1
  6

  9
$DIMLTEX2
  6

  9
$LUNITS
 70
    2
  9
$LUPREC
 70
    4
  9
$SKETCHINC
 40
0.1
  9
$FILLETRAD
 40
0.5
  9
$AUNITS
 70
    0
  9
$AUPREC
 70
    0
  9
$MENU
  1
.
  9
$ELEVATION
 40
0
  9
$PELEVATION
 40
0
  9
$THICKNESS
 40
0
  9
$LIMCHECK
 70
    0
  9
$CHAMFERA
 40
0
  9
$CHAMFERB
 40
0
  9
$CHAMFERC
 40
0
  9
$CHAMFERD
 40
0
  9
$SKPOLY
 70
    0
  9
$USRTIMER
 70
    1
  9
$ANGBASE
 50
0
  9
$ANGDIR
 70
    0
  9
$PDMODE
 70
    0
  9
$PDSIZE
 40
0
  9
$PLINEWID
 40
0
  9
$SPLFRAME
 70
    0
  9
$SPLINETYPE
 70
    6
  9
$SPLINESEGS
 70
    8
  9
$HANDSEED
  5
20000
  9
$SURFTAB1
 70
    6
  9
$SURFTAB2
 70
    6
  9
$SURFTYPE
 70
    6
  9
$SURFU
 70
    6
  9
$SURFV
 70
    6
  9
$UCSBASE
  2

  9
$UCSNAME
  2

  9
$UCSORG
 10
0
 20
0
 30
0
  9
$UCSXDIR
 10
1
 20
0
 30
0
  9
$UCSYDIR
 10
0
 20
1
 30
0
  9
$UCSORTHOREF
  2

  9
$UCSORTHOVIEW
 70
    0
  9
$UCSORGTOP
 10
0
 20
0
 30
0
  9
$UCSORGBOTTOM
 10
0
 20
0
 30
0
  9
$UCSORGLEFT
 10
0
 20
0
 30
0
  9
$UCSORGRIGHT
 10
0
 20
0
 30
0
  9
$UCSORGFRONT
 10
0
 20
0
 30
0
  9
$UCSORGBACK
 10
0
 20
0
 30
0
  9
$PUCSBASE
  2

  9
$PUCSNAME
  2

  9
$PUCSORG
 10
0
 20
0
 30
0
  9
$PUCSXDIR
 10
1
 20
0
 30
0
  9
$PUCSYDIR
 10
0
 20
1
 30
0
  9
$PUCSORTHOREF
  2

  9
$PUCSORTHOVIEW
 70
    0
  9
$PUCSORGTOP
 10
0
 20
0
 30
0
  9
$PUCSORGBOTTOM
 10
0
 20
0
 30
0
  9
$PUCSORGLEFT
 10
0
 20
0
 30
0
  9
$PUCSORGRIGHT
 10
0
 20
0
 30
0
  9
$PUCSORGFRONT
 10
0
 20
0
 30
0
  9
$PUCSORGBACK
 10
0
 20
0
 30
0
  9
$USERI1
 70
    0
  9
$USERI2
 70
    0
  9
$USERI3
 70
    0
  9
$USERI4
 70
    0
  9
$USERI5
 70
    0
  9
$USERR1
 40
0
  9
$USERR2
 40
0
  9
$USERR3
 40
0
  9
$USERR4
 40
0
  9
$USERR5
 40
0
  9
$WORLDVIEW
 70
    1
  9
$SHADEDGE
 70
    3
  9
$SHADEDIF
 70
   70
  9
$TILEMODE
 70
    1
  9
$MAXACTVP
 70
   64
  9
$PINSBASE
 10
0
 20
0
 30
0
  9
$PLIMCHECK
 70
    0
  9
$PEXTMIN
 10
0
 20
0
 30
0
  9
$PEXTMAX
 10
0
 20
0
 30
0
  9
$GRIDMODE
 70
    1
  9
$SNAPSTYLE
 70
    0
  9
$PLIMMIN
 10
-20
 20
-7.5
  9
$PLIMMAX
 10
277
 20
202.5
  9
$UNITMODE
 70
    0
  9
$VISRETAIN
 70
    1
  9
$PLINEGEN
 70
    0
  9
$PSLTSCALE
 70
    1
  9
$TREEDEPTH
 70
 3020
  9
$CMLSTYLE
  2
Standard
  9
$CMLJUST
 70
    0
  9
$CMLSCALE
 40
1
  9
$PROXYGRAPHICS
 70
    1
  9
$MEASUREMENT
 70
    1
  9
$CELWEIGHT
370
   -1
  9
$ENDCAPS
280
    0
  9
$JOINSTYLE
280
    0
  9
$LWDISPLAY
290
    0
  9
$INSUNITS
 70
    4
  9
$HYPERLINKBASE
  1

  9
$STYLESHEET
  1

  9
$XEDIT
290
    1
  9
$CEPSNTYPE
380
    0
  9
$PSTYLEMODE
290
    1
  9
$EXTNAMES
290
    1
  9
$PSVPSCALE
 40
0
  9
$OLESTARTUP
290
    0
  9
$SORTENTS
280
  127
  9
$INDEXCTL
280
    0
  9
$HIDETEXT
280
    1
  9
$XCLIPFRAME
290
    2
  9
$HALOGAP
280
    0
  9
$OBSCOLOR
 70
  257
  9
$OBSLTYPE
280
    0
  9
$INTERSECTIONDISPLAY
280
    0
  9
$INTERSECTIONCOLOR
 70
  257
  9
$DIMASSOC
280
    2
  9
$PROJECTNAME
  1

  9
$CAMERADISPLAY
290
    0
  9
$LENSLENGTH
 40
50
  9
$CAMERAHEIGHT
 40
0
  9
$STEPSPERSEC
 40
2
  9
$STEPSIZE
 40
6
  9
$3DDWFPREC
 40
2
  9
$PSOLWIDTH
 40
0.25
  9
$PSOLHEIGHT
 40
4
  9
$LOFTANG1
 40
1.570796326794897
  9
$LOFTANG2
 40
1.570796326794897
  9
$LOFTMAG1
 40
0
  9
$LOFTMAG2
 40
0
  9
$LOFTPARAM
 70
    7
  9
$LOFTNORMALS
280
    1
  9
$LATITUDE
 40
37.795
  9
$LONGITUDE
 40
-122.394
  9
$NORTHDIRECTION
 40
0
  9
$TIMEZONE
 70
-8000
  9
$LIGHTGLYPHDISPLAY
280
    1
  9
$TILEMODELIGHTSYNCH
280
    1
  9
$SOLIDHIST
280
    0
  9
$SHOWHIST
280
    1
  9
$DWFFRAME
280
    2
  9
$DGNFRAME
280
    2
  9
$REALWORLDSCALE
290
    1
  9
$INTERFERECOLOR
 62
  256
  9
$CSHADOW
280
    0
  9
$SHADOWPLANELOCATION
 40
0
  0
ENDSEC
  0
SECTION
  2
CLASSES
  0
ENDSEC
  0
SECTION
  2
TABLES
  0
TABLE
  2
VPORT
  5
8
330
0
100
AcDbSymbolTable
 70
    1
  0
VPORT
  5
31
330
2
100
AcDbSymbolTableRecord
100
AcDbViewportTableRecord
  2
*ACTIVE
 70
    0
 10
0
 20
0
 11
1
 21
1
 12
162.6814036697253
 22
55.35833944954148
 13
0
 23
0
 14
10
 24
10
 15
10
 25
10
 16
0
 26
0
 36
1
 17
0
 27
0
 37
0
 40
165.7215168195725
 41
1.691126279863481
 42
50
 43
0
 44
0
 50
0
 51
0
 71
    0
 72
  100
 73
    1
 74
    3
 75
    0
 76
    1
 77
    0
 78
    0
281
    0
 65
    1
110
0
120
0
130
0
111
1
121
0
131
0
112
0
122
1
132
0
 79
    0
146
0
348
10020
 60
    7
 61
    5
292
1
282
    1
141
0
142
0
 63
  250
421
3358443
  0
ENDTAB
  0
TABLE
  2
LTYPE
  5
5
330
0
100
AcDbSymbolTable
 70
    4
  0
LTYPE
  5
14
330
5
100
AcDbSymbolTableRecord
100
AcDbLinetypeTableRecord
  2
ByBlock
 70
    0
  3

 72
   65
 73
    0
 40
0
  0
LTYPE
  5
15
330
5
100
AcDbSymbolTableRecord
100
AcDbLinetypeTableRecord
  2
ByLayer
 70
    0
  3

 72
   65
 73
    0
 40
0
  0
LTYPE
  5
16
330
5
100
AcDbSymbolTableRecord
100
AcDbLinetypeTableRecord
  2
Continuous
 70
    0
  3
Solid line
 72
   65
 73
    0
 40
0
  0
LTYPE
  5
32
330
5
100
AcDbSymbolTableRecord
100
AcDbLinetypeTableRecord
  2
DOT
 70
    0
  3
Dot . . . . . . . . . . . . . . . . . . . . . .
 72
   65
 73
    2
 40
6.35
 49
0
 74
    0
 49
-6.35
 74
    0
  0
LTYPE
  5
33
330
5
100
AcDbSymbolTableRecord
100
AcDbLinetypeTableRecord
  2
DOTTINY
 70
    0
  3
Dot (.15x) .....................................
 72
   65
 73
    2
 40
0.9525
 49
0
 74
    0
 49
-0.9525
 74
    0
  0
LTYPE
  5
34
330
5
100
AcDbSymbolTableRecord
100
AcDbLinetypeTableRecord
  2
DOT2
 70
    0
  3
Dot (.5x) .....................................
 72
   65
 73
    2
 40
3.175
 49
0
 74
    0
 49
-3.175
 74
    0
  0
LTYPE
  5
35
330
5
100
AcDbSymbolTableRecord
100
AcDbLinetypeTableRecord
  2
DOTX2
 70
    0
  3
Dot (2x) .  .  .  .  .  .  .  .  .  .  .  .  .
 72
   65
 73
    2
 40
12.7
 49
0
 74
    0
 49
-12.7
 74
    0
  0
LTYPE
  5
36
330
5
100
AcDbSymbolTableRecord
100
AcDbLinetypeTableRecord
  2
DASHED
 70
    0
  3
Dashed _ _ _ _ _ _ _ _ _ _ _ _ _ _ _ _ _
 72
   65
 73
    2
 40
19.05
 49
12.7
 74
    0
 49
-6.35
 74
    0
  0
LTYPE
  5
37
330
5
100
AcDbSymbolTableRecord
100
AcDbLinetypeTableRecord
  2
DASHEDTINY
 70
    0
  3
Dashed (.15x) _ _ _ _ _ _ _ _ _ _ _ _ _ _ _ _ _
 72
   65
 73
    2
 40
2.8575
 49
1.905
 74
    0
 49
-0.9525
 74
    0
  0
LTYPE
  5
38
330
5
100
AcDbSymbolTableRecord
100
AcDbLinetypeTableRecord
  2
DASHED2
 70
    0
  3
Dashed (.5x) _ _ _ _ _ _ _ _ _ _ _ _ _ _ _ _ _
 72
   65
 73
    2
 40
9.524999999999999
 49
6.35
 74
    0
 49
-3.175
 74
    0
  0
LTYPE
  5
39
330
5
100
AcDbSymbolTableRecord
100
AcDbLinetypeTableRecord
  2
DASHEDX2
 70
    0
  3
Dashed (2x) ____  ____  ____  ____  ____  ___
 72
   65
 73
    2
 40
38.09999999999999
 49
25.4
 74
    0
 49
-12.7
 74
    0
  0
LTYPE
  5
3A
330
5
100
AcDbSymbolTableRecord
100
AcDbLinetypeTableRecord
  2
DASHDOT
 70
    0
  3
Dash dot __ . __ . __ . __ . __ . __ . __ . __
 72
   65
 73
    4
 40
25.4
 49
12.7
 74
    0
 49
-6.35
 74
    0
 49
0
 74
    0
 49
-6.35
 74
    0
  0
LTYPE
  5
3B
330
5
100
AcDbSymbolTableRecord
100
AcDbLinetypeTableRecord
  2
DASHDOTTINY
 70
    0
  3
Dash dot (.15x) _._._._._._._._._._._._._._._.
 72
   65
 73
    4
 40
3.81
 49
1.905
 74
    0
 49
-0.9525
 74
    0
 49
0
 74
    0
 49
-0.9525
 74
    0
  0
LTYPE
  5
3C
330
5
100
AcDbSymbolTableRecord
100
AcDbLinetypeTableRecord
  2
DASHDOT2
 70
    0
  3
Dash dot (.5x) _._._._._._._._._._._._._._._.
 72
   65
 73
    4
 40
12.7
 49
6.35
 74
    0
 49
-3.175
 74
    0
 49
0
 74
    0
 49
-3.175
 74
    0
  0
LTYPE
  5
3D
330
5
100
AcDbSymbolTableRecord
100
AcDbLinetypeTableRecord
  2
DASHDOTX2
 70
    0
  3
Dash dot (2x) ____  .  ____  .  ____  .  ___
 72
   65
 73
    4
 40
50.8
 49
25.4
 74
    0
 49
-12.7
 74
    0
 49
0
 74
    0
 49
-12.7
 74
    0
  0
LTYPE
  5
3E
330
5
100
AcDbSymbolTableRecord
100
AcDbLinetypeTableRecord
  2
DIVIDE
 70
    0
  3
Divide ____ . . ____ . . ____ . . ____ . . ____
 72
   65
 73
    6
 40
31.75
 49
12.7
 74
    0
 49
-6.35
 74
    0
 49
0
 74
    0
 49
-6.35
 74
    0
 49
0
 74
    0
 49
-6.35
 74
    0
  0
LTYPE
  5
3F
330
5
100
AcDbSymbolTableRecord
100
AcDbLinetypeTableRecord
  2
DIVIDETINY
 70
    0
  3
Divide (.15x) __..__..__..__..__..__..__..__.._
 72
   65
 73
    6
 40
4.7625
 49
1.905
 74
    0
 49
-0.9525
 74
    0
 49
0
 74
    0
 49
-0.9525
 74
    0
 49
0
 74
    0
 49
-0.9525
 74
    0
  0
LTYPE
  5
40
330
5
100
AcDbSymbolTableRecord
100
AcDbLinetypeTableRecord
  2
DIVIDE2
 70
    0
  3
Divide (.5x) __..__..__..__..__..__..__..__.._
 72
   65
 73
    6
 40
15.875
 49
6.35
 74
    0
 49
-3.175
 74
    0
 49
0
 74
    0
 49
-3.175
 74
    0
 49
0
 74
    0
 49
-3.175
 74
    0
  0
LTYPE
  5
41
330
5
100
AcDbSymbolTableRecord
100
AcDbLinetypeTableRecord
  2
DIVIDEX2
 70
    0
  3
Divide (2x) ________  .  .  ________  .  .  _
 72
   65
 73
    6
 40
63.5
 49
25.4
 74
    0
 49
-12.7
 74
    0
 49
0
 74
    0
 49
-12.7
 74
    0
 49
0
 74
    0
 49
-12.7
 74
    0
  0
LTYPE
  5
42
330
5
100
AcDbSymbolTableRecord
100
AcDbLinetypeTableRecord
  2
BORDER
 70
    0
  3
Border __ __ . __ __ . __ __ . __ __ . __ __ .
 72
   65
 73
    6
 40
44.45
 49
12.7
 74
    0
 49
-6.35
 74
    0
 49
12.7
 74
    0
 49
-6.35
 74
    0
 49
0
 74
    0
 49
-6.35
 74
    0
  0
LTYPE
  5
43
330
5
100
AcDbSymbolTableRecord
100
AcDbLinetypeTableRecord
  2
BORDERTINY
 70
    0
  3
Border (.15x) __.__.__.__.__.__.__.__.__.__.__.
 72
   65
 73
    6
 40
6.6675
 49
1.905
 74
    0
 49
-0.9525
 74
    0
 49
1.905
 74
    0
 49
-0.9525
 74
    0
 49
0
 74
    0
 49
-0.9525
 74
    0
  0
LTYPE
  5
44
330
5
100
AcDbSymbolTableRecord
100
AcDbLinetypeTableRecord
  2
BORDER2
 70
    0
  3
Border (.5x) __.__.__.__.__.__.__.__.__.__.__.
 72
   65
 73
    6
 40
22.225
 49
6.35
 74
    0
 49
-3.175
 74
    0
 49
6.35
 74
    0
 49
-3.175
 74
    0
 49
0
 74
    0
 49
-3.175
 74
    0
  0
LTYPE
  5
45
330
5
100
AcDbSymbolTableRecord
100
AcDbLinetypeTableRecord
  2
BORDERX2
 70
    0
  3
Border (2x) ____  ____  .  ____  ____  .  ___
 72
   65
 73
    6
 40
88.89999999999999
 49
25.4
 74
    0
 49
-12.7
 74
    0
 49
25.4
 74
    0
 49
-12.7
 74
    0
 49
0
 74
    0
 49
-12.7
 74
    0
  0
LTYPE
  5
46
330
5
100
AcDbSymbolTableRecord
100
AcDbLinetypeTableRecord
  2
CENTER
 70
    0
  3
Center ____ _ ____ _ ____ _ ____ _ ____ _ ____
 72
   65
 73
    4
 40
50.8
 49
31.75
 74
    0
 49
-6.35
 74
    0
 49
6.35
 74
    0
 49
-6.35
 74
    0
  0
LTYPE
  5
47
330
5
100
AcDbSymbolTableRecord
100
AcDbLinetypeTableRecord
  2
CENTERTINY
 70
    0
  3
Center (.15x) ___ _ ___ _ ___ _ ___ _ ___ _ ___
 72
   65
 73
    4
 40
7.619999999999999
 49
4.7625
 74
    0
 49
-0.9525
 74
    0
 49
0.9525
 74
    0
 49
-0.9525
 74
    0
  0
LTYPE
  5
48
330
5
100
AcDbSymbolTableRecord
100
AcDbLinetypeTableRecord
  2
CENTER2
 70
    0
  3
Center (.5x) ___ _ ___ _ ___ _ ___ _ ___ _ ___
 72
   65
 73
    4
 40
28.575
 49
19.05
 74
    0
 49
-3.175
 74
    0
 49
3.175
 74
    0
 49
-3.175
 74
    0
  0
LTYPE
  5
49
330
5
100
AcDbSymbolTableRecord
100
AcDbLinetypeTableRecord
  2
CENTERX2
 70
    0
  3
Center (2x) ________  __  ________  __  _____
 72
   65
 73
    4
 40
101.6
 49
63.5
 74
    0
 49
-12.7
 74
    0
 49
12.7
 74
    0
 49
-12.7
 74
    0
  0
ENDTAB
  0
TABLE
  2
LAYER
  5
2
330
0
100
AcDbSymbolTable
 70
    1
  0
LAYER
  5
10
330
2
100
AcDbSymbolTableRecord
100
AcDbLayerTableRecord
  2
0
 70
    0
 62
    7
  6
CONTINUOUS
370
   25
390
F
  0
LAYER
  5
4A
330
2
100
AcDbSymbolTableRecord
100
AcDbLayerTableRecord
  2
EXT
 70
    0
 62
    3
  6
CONTINUOUS
370
    0
390
F
  0
LAYER
  5
4B
330
2
100
AcDbSymbolTableRecord
100
AcDbLayerTableRecord
  2
INT
 70
    0
 62
    1
  6
CONTINUOUS
370
    0
390
F
  0
ENDTAB
  0
TABLE
  2
STYLE
  5
3
330
0
100
AcDbSymbolTable
 70
    3
  0
STYLE
  5
4C
330
2
100
AcDbSymbolTableRecord
100
AcDbTextStyleTableRecord
  2
Standard
 70
    0
 40
0
 41
1
 50
0
 71
    0
 42
1
  3
txt
  4

  0
ENDTAB
  0
TABLE
  2
VIEW
  5
6
330
0
100
AcDbSymbolTable
 70
    0
  0
ENDTAB
  0
TABLE
  2
UCS
  5
7
330
0
100
AcDbSymbolTable
 70
    0
  0
ENDTAB
  0
TABLE
  2
APPID
  5
9
330
0
100
AcDbSymbolTable
 70
    1
  0
APPID
  5
12
330
9
100
AcDbSymbolTableRecord
100
AcDbRegAppTableRecord
  2
ACAD
 70
    0
  0
APPID
  5
4D
330
9
100
AcDbSymbolTableRecord
100
AcDbRegAppTableRecord
  2
LibreCad
 70
    0
  0
ENDTAB
  0
TABLE
  2
DIMSTYLE
  5
A
330
0
100
AcDbSymbolTable
 70
    1
100
AcDbDimStyleTable
 71
    1
  0
DIMSTYLE
105
4E
330
A
100
AcDbSymbolTableRecord
100
AcDbDimStyleTableRecord
  2
Standard
 70
    0
 40
1
 41
2.5
 42
0.625
 43
0.38
 44
1.25
 45
0
 46
0
 47
0
 48
0
 49
1
140
2.5
141
0.09
142
0
143
25.4
144
1
145
0
146
1
147
0.625
148
0
 71
    0
 72
    0
 73
    1
 74
    1
 75
    0
 76
    0
 77
    0
 78
    8
 79
    2
170
    0
171
    2
172
    0
173
    0
174
    0
175
    0
176
    0
177
    0
178
    0
179
    0
271
    4
272
    4
273
    2
274
    2
275
    0
276
    0
277
    2
278
   46
279
    0
280
    0
281
    0
282
    0
283
    1
284
    0
285
    0
286
    0
288
    0
289
    3
340
Standard
341

371
   -2
372
   -2
  0
ENDTAB
  0
TABLE
  2
BLOCK_RECORD
  5
1
330
0
100
AcDbSymbolTable
 70
    2
  0
BLOCK_RECORD
  5
1F
330
1
100
AcDbSymbolTableRecord
100
AcDbBlockTableRecord
  2
*Model_Space
 70
    0
280
    1
281
    0
  0
BLOCK_RECORD
  5
1E
330
1
100
AcDbSymbolTableRecord
100
AcDbBlockTableRecord
  2
*Paper_Space
 70
    0
280
    1
281
    0
  0
BLOCK_RECORD
  5
4F
330
1
100
AcDbSymbolTableRecord
100
AcDbBlockTableRecord
  2
WonrderTANG-Edge_Cuts
 70
    0
280
    1
281
    0
  0
BLOCK_RECORD
  5
52
330
1
100
AcDbSymbolTableRecord
100
AcDbBlockTableRecord
  2
WonrderTANG-F_Mask
 70
    0
280
    1
281
    0
  0
BLOCK_RECORD
  5
55
330
1
100
AcDbSymbolTableRecord
100
AcDbBlockTableRecord
  2
WonrderTANG-F_Silkscreen
 70
    0
280
    1
281
    0
  0
ENDTAB
  0
ENDSEC
  0
SECTION
  2
BLOCKS
  0
BLOCK
  5
20
330
1F
100
AcDbEntity
  8
0
100
AcDbBlockBegin
  2
*Model_Space
 70
    0
 10
0
 20
0
 30
0
  3
*Model_Space
  1

  0
ENDBLK
  5
21
330
1F
100
AcDbEntity
  8
0
100
AcDbBlockEnd
  0
BLOCK
  5
1C
330
1B
100
AcDbEntity
  8
0
100
AcDbBlockBegin
  2
*Paper_Space
 70
    0
 10
0
 20
0
 30
0
  3
*Paper_Space
  1

  0
ENDBLK
  5
1D
330
1F
100
AcDbEntity
  8
0
100
AcDbBlockEnd
  0
BLOCK
  5
50
330
4F
100
AcDbEntity
  8
0
100
AcDbBlockBegin
  2
WonrderTANG-Edge_Cuts
 70
    0
 10
0
 20
0
  3
WonrderTANG-Edge_Cuts
  1

  0
ENDBLK
  5
51
330
4F
100
AcDbEntity
  8
0
100
AcDbBlockEnd
  0
BLOCK
  5
53
330
52
100
AcDbEntity
  8
0
100
AcDbBlockBegin
  2
WonrderTANG-F_Mask
 70
    0
 10
0
 20
0
  3
WonrderTANG-F_Mask
  1

  0
ENDBLK
  5
54
330
52
100
AcDbEntity
  8
0
100
AcDbBlockEnd
  0
BLOCK
  5
56
330
55
100
AcDbEntity
  8
0
100
AcDbBlockBegin
  2
WonrderTANG-F_Silkscreen
 70
    0
 10
0
 20
0
  3
WonrderTANG-F_Silkscreen
  1

  0
ENDBLK
  5
57
330
55
100
AcDbEntity
  8
0
100
AcDbBlockEnd
  0
ENDSEC
  0
SECTION
  2
ENTITIES
  0
LINE
  5
58
100
AcDbEntity
  8
EXT
  6
ByLayer
 62
  256
370
   -1
100
AcDbLine
 10
171.2021274463983
 20
-30.00000000000003
 11
279.2021274463983
 21
-30.00000000000003
  0
LINE
  5
59
100
AcDbEntity
  8
EXT
  6
ByLayer
 62
  256
370
   -1
100
AcDbLine
 10
173.2021274463983
 20
31.24999999999997
 11
171.2021274463983
 21
31.24999999999997
  0
LINE
  5
5A
100
AcDbEntity
  8
EXT
  6
ByLayer
 62
  256
370
   -1
100
AcDbLine
 10
173.2021274463983
 20
22.44999999999999
 11
173.2021274463983
 21
13.69999999999999
  0
LINE
  5
5B
100
AcDbEntity
  8
EXT
  6
ByLayer
 62
  256
370
   -1
100
AcDbLine
 10
173.2021274463983
 20
13.69999999999999
 11
171.2021274463983
 21
13.69999999999999
  0
LINE
  5
5C
100
AcDbEntity
  8
EXT
  6
ByLayer
 62
  256
370
   -1
100
AcDbLine
 10
171.2021274463983
 20
4.899999999999977
 11
173.2021274463983
 21
4.899999999999977
  0
LINE
  5
5D
100
AcDbEntity
  8
EXT
  6
ByLayer
 62
  256
370
   -1
100
AcDbLine
 10
171.2021274463983
 20
-3.850000000000023
 11
173.2021274463983
 21
-3.850000000000023
  0
LINE
  5
5E
100
AcDbEntity
  8
EXT
  6
ByLayer
 62
  256
370
   -1
100
AcDbLine
 10
171.2021274463983
 20
-12.65000000000001
 11
173.2021274463983
 21
-12.65000000000001
  0
LINE
  5
5F
100
AcDbEntity
  8
EXT
  6
ByLayer
 62
  256
370
   -1
100
AcDbLine
 10
171.2021274463983
 20
-21.40000000000001
 11
173.2021274463983
 21
-21.40000000000001
  0
LINE
  5
60
100
AcDbEntity
  8
EXT
  6
ByLayer
 62
  256
370
   -1
100
AcDbLine
 10
173.2021274463983
 20
4.899999999999977
 11
173.2021274463983
 21
-3.850000000000023
  0
LINE
  5
61
100
AcDbEntity
  8
EXT
  6
ByLayer
 62
  256
370
   -1
100
AcDbLine
 10
173.2021274463983
 20
-12.65000000000001
 11
173.2021274463983
 21
-21.40000000000001
  0
LINE
  5
62
100
AcDbEntity
  8
EXT
  6
ByLayer
 62
  256
370
   -1
100
AcDbLine
 10
171.2021274463983
 20
13.69999999999999
 11
171.2021274463983
 21
4.899999999999977
  0
LINE
  5
63
100
AcDbEntity
  8
EXT
  6
ByLayer
 62
  256
370
   -1
100
AcDbLine
 10
171.2021274463983
 20
-12.65000000000001
 11
171.2021274463983
 21
-3.849999999999994
  0
LINE
  5
64
100
AcDbEntity
  8
EXT
  6
ByLayer
 62
  256
370
   -1
100
AcDbLine
 10
171.2021274463983
 20
-30.00000000000003
 11
171.2021274463983
 21
-21.40000000000001
  0
LINE
  5
65
100
AcDbEntity
  8
EXT
  6
ByLayer
 62
  256
370
   -1
100
AcDbLine
 10
171.2021274463983
 20
31.24999999999997
 11
171.2021274463983
 21
22.44999999999999
  0
LINE
  5
66
100
AcDbEntity
  8
EXT
  6
ByLayer
 62
  256
370
   -1
100
AcDbLine
 10
277.2021274463983
 20
31.24999999999997
 11
279.2021274463983
 21
31.24999999999997
  0
LINE
  5
67
100
AcDbEntity
  8
EXT
  6
ByLayer
 62
  256
370
   -1
100
AcDbLine
 10
279.2021274463983
 20
22.44999999999999
 11
277.2021274463983
 21
22.44999999999996
  0
LINE
  5
68
100
AcDbEntity
  8
EXT
  6
ByLayer
 62
  256
370
   -1
100
AcDbLine
 10
277.2021274463983
 20
22.44999999999996
 11
277.2021274463983
 21
13.69999999999999
  0
LINE
  5
69
100
AcDbEntity
  8
EXT
  6
ByLayer
 62
  256
370
   -1
100
AcDbLine
 10
277.2021274463983
 20
13.69999999999999
 11
279.2021274463983
 21
13.69999999999999
  0
LINE
  5
6A
100
AcDbEntity
  8
EXT
  6
ByLayer
 62
  256
370
   -1
100
AcDbLine
 10
279.2021274463983
 20
4.899999999999977
 11
277.2021274463983
 21
4.899999999999977
  0
LINE
  5
6B
100
AcDbEntity
  8
EXT
  6
ByLayer
 62
  256
370
   -1
100
AcDbLine
 10
279.2021274463983
 20
-3.850000000000023
 11
277.2021274463983
 21
-3.850000000000023
  0
LINE
  5
6C
100
AcDbEntity
  8
EXT
  6
ByLayer
 62
  256
370
   -1
100
AcDbLine
 10
279.2021274463983
 20
-12.65000000000001
 11
277.2021274463983
 21
-12.65000000000001
  0
LINE
  5
6D
100
AcDbEntity
  8
EXT
  6
ByLayer
 62
  256
370
   -1
100
AcDbLine
 10
279.2021274463983
 20
-21.40000000000001
 11
277.2021274463983
 21
-21.40000000000001
  0
LINE
  5
6E
100
AcDbEntity
  8
EXT
  6
ByLayer
 62
  256
370
   -1
100
AcDbLine
 10
277.2021274463983
 20
4.899999999999977
 11
277.2021274463983
 21
-3.850000000000023
  0
LINE
  5
6F
100
AcDbEntity
  8
EXT
  6
ByLayer
 62
  256
370
   -1
100
AcDbLine
 10
277.2021274463983
 20
-12.65000000000001
 11
277.2021274463983
 21
-21.40000000000001
  0
LINE
  5
70
100
AcDbEntity
  8
EXT
  6
ByLayer
 62
  256
370
   -1
100
AcDbLine
 10
279.2021274463983
 20
13.69999999999999
 11
279.2021274463983
 21
4.899999999999977
  0
LINE
  5
71
100
AcDbEntity
  8
EXT
  6
ByLayer
 62
  256
370
   -1
100
AcDbLine
 10
279.2021274463983
 20
-12.65000000000001
 11
279.2021274463983
 21
-3.849999999999994
  0
LINE
  5
72
100
AcDbEntity
  8
EXT
  6
ByLayer
 62
  256
370
   -1
100
AcDbLine
 10
279.2021274463983
 20
-30.00000000000003
 11
279.2021274463983
 21
-21.40000000000001
  0
LINE
  5
73
100
AcDbEntity
  8
EXT
  6
ByLayer
 62
  256
370
   -1
100
AcDbLine
 10
279.2021274463983
 20
31.24999999999997
 11
279.2021274463983
 21
22.44999999999999
  0
LINE
  5
74
100
AcDbEntity
  8
EXT
  6
ByLayer
 62
  256
370
   -1
100
AcDbLine
 10
292.2021274463983
 20
-30.00000000000003
 11
279.2021274463983
 21
-30.00000000000003
  0
LINE
  5
75
100
AcDbEntity
  8
EXT
  6
ByLayer
 62
  256
370
   -1
100
AcDbLine
 10
294.2021274463983
 20
31.24999999999997
 11
292.2021274463983
 21
31.24999999999997
  0
LINE
  5
76
100
AcDbEntity
  8
EXT
  6
ByLayer
 62
  256
370
   -1
100
AcDbLine
 10
292.2021274463983
 20
22.44999999999997
 11
294.2021274463983
 21
22.44999999999997
  0
LINE
  5
77
100
AcDbEntity
  8
EXT
  6
ByLayer
 62
  256
370
   -1
100
AcDbLine
 10
294.2021274463983
 20
22.44999999999997
 11
294.2021274463983
 21
13.69999999999997
  0
LINE
  5
78
100
AcDbEntity
  8
EXT
  6
ByLayer
 62
  256
370
   -1
100
AcDbLine
 10
294.2021274463983
 20
13.69999999999997
 11
292.2021274463983
 21
13.69999999999997
  0
LINE
  5
79
100
AcDbEntity
  8
EXT
  6
ByLayer
 62
  256
370
   -1
100
AcDbLine
 10
292.2021274463983
 20
4.899999999999963
 11
294.2021274463983
 21
4.899999999999963
  0
LINE
  5
7A
100
AcDbEntity
  8
EXT
  6
ByLayer
 62
  256
370
   -1
100
AcDbLine
 10
292.2021274463983
 20
-3.850000000000037
 11
294.2021274463983
 21
-3.850000000000037
  0
LINE
  5
7B
100
AcDbEntity
  8
EXT
  6
ByLayer
 62
  256
370
   -1
100
AcDbLine
 10
292.2021274463983
 20
-12.65000000000003
 11
294.2021274463983
 21
-12.65000000000003
  0
LINE
  5
7C
100
AcDbEntity
  8
EXT
  6
ByLayer
 62
  256
370
   -1
100
AcDbLine
 10
292.2021274463983
 20
-21.40000000000003
 11
294.2021274463983
 21
-21.40000000000003
  0
LINE
  5
7D
100
AcDbEntity
  8
EXT
  6
ByLayer
 62
  256
370
   -1
100
AcDbLine
 10
294.2021274463983
 20
4.899999999999963
 11
294.2021274463983
 21
-3.850000000000037
  0
LINE
  5
7E
100
AcDbEntity
  8
EXT
  6
ByLayer
 62
  256
370
   -1
100
AcDbLine
 10
294.2021274463983
 20
-12.65000000000003
 11
294.2021274463983
 21
-21.40000000000002
  0
LINE
  5
7F
100
AcDbEntity
  8
EXT
  6
ByLayer
 62
  256
370
   -1
100
AcDbLine
 10
292.2021274463983
 20
31.24999999999997
 11
292.2021274463983
 21
22.49999999999997
  0
LINE
  5
80
100
AcDbEntity
  8
EXT
  6
ByLayer
 62
  256
370
   -1
100
AcDbLine
 10
292.2021274463983
 20
13.69999999999997
 11
292.2021274463983
 21
4.899999999999963
  0
LINE
  5
81
100
AcDbEntity
  8
EXT
  6
ByLayer
 62
  256
370
   -1
100
AcDbLine
 10
292.2021274463983
 20
-12.65000000000003
 11
292.2021274463983
 21
-3.850000000000009
  0
LINE
  5
82
100
AcDbEntity
  8
EXT
  6
ByLayer
 62
  256
370
   -1
100
AcDbLine
 10
292.2021274463983
 20
-30.00000000000003
 11
292.2021274463983
 21
-21.40000000000003
  0
LINE
  5
83
100
AcDbEntity
  8
EXT
  6
ByLayer
 62
  256
370
   -1
100
AcDbLine
 10
171.2021274463983
 20
-30.00000000000003
 11
158.2021274463983
 21
-30.00000000000003
  0
LINE
  5
84
100
AcDbEntity
  8
EXT
  6
ByLayer
 62
  256
370
   -1
100
AcDbLine
 10
156.2021274463983
 20
31.24999999999997
 11
158.2021274463983
 21
31.24999999999997
  0
LINE
  5
85
100
AcDbEntity
  8
EXT
  6
ByLayer
 62
  256
370
   -1
100
AcDbLine
 10
171.2021274463983
 20
22.44999999999997
 11
173.2021274463983
 21
22.44999999999997
  0
LINE
  5
86
100
AcDbEntity
  8
EXT
  6
ByLayer
 62
  256
370
   -1
100
AcDbLine
 10
158.2021274463983
 20
22.44999999999997
 11
156.2021274463983
 21
22.44999999999996
  0
LINE
  5
87
100
AcDbEntity
  8
EXT
  6
ByLayer
 62
  256
370
   -1
100
AcDbLine
 10
156.2021274463983
 20
22.44999999999996
 11
156.2021274463983
 21
13.69999999999997
  0
LINE
  5
88
100
AcDbEntity
  8
EXT
  6
ByLayer
 62
  256
370
   -1
100
AcDbLine
 10
156.2021274463983
 20
13.69999999999997
 11
158.2021274463983
 21
13.69999999999997
  0
LINE
  5
89
100
AcDbEntity
  8
EXT
  6
ByLayer
 62
  256
370
   -1
100
AcDbLine
 10
158.2021274463983
 20
-12.65000000000003
 11
156.2021274463983
 21
-12.65000000000003
  0
LINE
  5
8A
100
AcDbEntity
  8
EXT
  6
ByLayer
 62
  256
370
   -1
100
AcDbLine
 10
158.2021274463983
 20
-21.40000000000003
 11
156.2021274463983
 21
-21.40000000000003
  0
LINE
  5
8B
100
AcDbEntity
  8
EXT
  6
ByLayer
 62
  256
370
   -1
100
AcDbLine
 10
156.2021274463983
 20
4.899999999999967
 11
156.2021274463983
 21
-3.85000000000003
  0
LINE
  5
8C
100
AcDbEntity
  8
EXT
  6
ByLayer
 62
  256
370
   -1
100
AcDbLine
 10
156.2021274463983
 20
-12.65000000000003
 11
156.2021274463983
 21
-21.40000000000002
  0
LINE
  5
8D
100
AcDbEntity
  8
EXT
  6
ByLayer
 62
  256
370
   -1
100
AcDbLine
 10
158.2021274463983
 20
13.69999999999997
 11
158.2021274463983
 21
4.899999999999967
  0
LINE
  5
8E
100
AcDbEntity
  8
EXT
  6
ByLayer
 62
  256
370
   -1
100
AcDbLine
 10
158.2021274463983
 20
-12.65000000000003
 11
158.2021274463983
 21
-3.850000000000009
  0
LINE
  5
8F
100
AcDbEntity
  8
EXT
  6
ByLayer
 62
  256
370
   -1
100
AcDbLine
 10
158.2021274463983
 20
-30.00000000000003
 11
158.2021274463983
 21
-21.40000000000003
  0
LINE
  5
90
100
AcDbEntity
  8
EXT
  6
ByLayer
 62
  256
370
   -1
100
AcDbLine
 10
158.2021274463983
 20
31.24999999999997
 11
158.2021274463983
 21
22.44999999999997
  0
LINE
  5
91
100
AcDbEntity
  8
EXT
  6
ByLayer
 62
  256
370
   -1
100
AcDbLine
 10
52.20212744639821
 20
31.24999999999994
 11
50.20212744639821
 21
31.24999999999994
  0
LINE
  5
92
100
AcDbEntity
  8
EXT
  6
ByLayer
 62
  256
370
   -1
100
AcDbLine
 10
50.20212744639821
 20
22.44999999999995
 11
52.20212744639821
 21
22.44999999999993
  0
LINE
  5
93
100
AcDbEntity
  8
EXT
  6
ByLayer
 62
  256
370
   -1
100
AcDbLine
 10
52.20212744639821
 20
22.44999999999993
 11
52.20212744639821
 21
13.69999999999993
  0
LINE
  5
94
100
AcDbEntity
  8
EXT
  6
ByLayer
 62
  256
370
   -1
100
AcDbLine
 10
52.20212744639821
 20
13.69999999999993
 11
50.20212744639821
 21
13.69999999999993
  0
LINE
  5
95
100
AcDbEntity
  8
EXT
  6
ByLayer
 62
  256
370
   -1
100
AcDbLine
 10
50.20212744639821
 20
4.899999999999935
 11
52.20212744639821
 21
4.899999999999935
  0
LINE
  5
96
100
AcDbEntity
  8
EXT
  6
ByLayer
 62
  256
370
   -1
100
AcDbLine
 10
50.20212744639821
 20
-3.850000000000065
 11
52.20212744639821
 21
-3.850000000000065
  0
LINE
  5
97
100
AcDbEntity
  8
EXT
  6
ByLayer
 62
  256
370
   -1
100
AcDbLine
 10
50.20212744639821
 20
-12.65000000000006
 11
52.20212744639821
 21
-12.65000000000006
  0
LINE
  5
98
100
AcDbEntity
  8
EXT
  6
ByLayer
 62
  256
370
   -1
100
AcDbLine
 10
50.20212744639821
 20
-21.40000000000006
 11
52.20212744639821
 21
-21.40000000000006
  0
LINE
  5
99
100
AcDbEntity
  8
EXT
  6
ByLayer
 62
  256
370
   -1
100
AcDbLine
 10
52.20212744639821
 20
4.899999999999935
 11
52.20212744639821
 21
-3.850000000000065
  0
LINE
  5
9A
100
AcDbEntity
  8
EXT
  6
ByLayer
 62
  256
370
   -1
100
AcDbLine
 10
52.20212744639821
 20
-12.65000000000006
 11
52.20212744639821
 21
-21.40000000000006
  0
LINE
  5
9B
100
AcDbEntity
  8
EXT
  6
ByLayer
 62
  256
370
   -1
100
AcDbLine
 10
50.20212744639821
 20
13.69999999999993
 11
50.20212744639821
 21
4.899999999999935
  0
LINE
  5
9C
100
AcDbEntity
  8
EXT
  6
ByLayer
 62
  256
370
   -1
100
AcDbLine
 10
50.20212744639821
 20
-12.65000000000006
 11
50.20212744639821
 21
-3.850000000000051
  0
LINE
  5
9D
100
AcDbEntity
  8
EXT
  6
ByLayer
 62
  256
370
   -1
100
AcDbLine
 10
50.20212744639821
 20
-30.00000000000003
 11
50.20212744639821
 21
-21.40000000000006
  0
LINE
  5
9E
100
AcDbEntity
  8
EXT
  6
ByLayer
 62
  256
370
   -1
100
AcDbLine
 10
50.20212744639821
 20
31.24999999999994
 11
50.20212744639821
 21
22.44999999999995
  0
LINE
  5
9F
100
AcDbEntity
  8
EXT
  6
ByLayer
 62
  256
370
   -1
100
AcDbLine
 10
158.2021274463983
 20
4.899999999999977
 11
156.2021274463983
 21
4.899999999999977
  0
LINE
  5
A0
100
AcDbEntity
  8
EXT
  6
ByLayer
 62
  256
370
   -1
100
AcDbLine
 10
158.2021274463983
 20
-3.850000000000023
 11
156.2021274463983
 21
-3.850000000000023
  0
LINE
  5
A1
100
AcDbEntity
  8
EXT
  6
ByLayer
 62
  256
370
   -1
100
AcDbLine
 10
171.2021274463983
 20
55.25568268668432
 11
171.2021274463983
 21
57.25568268668432
  0
LINE
  5
A2
100
AcDbEntity
  8
EXT
  6
ByLayer
 62
  256
370
   -1
100
AcDbLine
 10
171.2021274463983
 20
57.25568268668432
 11
173.2021274463983
 21
57.25568268668432
  0
LINE
  5
A3
100
AcDbEntity
  8
EXT
  6
ByLayer
 62
  256
370
   -1
100
AcDbLine
 10
173.2021274463983
 20
57.25568268668432
 11
173.2021274463983
 21
55.25568268668432
  0
LINE
  5
A4
100
AcDbEntity
  8
EXT
  6
ByLayer
 62
  256
370
   -1
100
AcDbLine
 10
279.2021274463983
 20
55.25568268668429
 11
279.2021274463983
 21
40.25568268668432
  0
LINE
  5
A5
100
AcDbEntity
  8
EXT
  6
ByLayer
 62
  256
370
   -1
100
AcDbLine
 10
279.2021274463983
 20
55.25568268668429
 11
279.2021274463983
 21
57.25568268668429
  0
LINE
  5
A6
100
AcDbEntity
  8
EXT
  6
ByLayer
 62
  256
370
   -1
100
AcDbLine
 10
279.2021274463983
 20
57.25568268668429
 11
277.2021274463983
 21
57.25568268668429
  0
LINE
  5
A7
100
AcDbEntity
  8
EXT
  6
ByLayer
 62
  256
370
   -1
100
AcDbLine
 10
277.2021274463983
 20
57.25568268668429
 11
277.2021274463983
 21
55.25568268668429
  0
LINE
  5
A8
100
AcDbEntity
  8
EXT
  6
ByLayer
 62
  256
370
   -1
100
AcDbLine
 10
240.0401274463984
 20
55.25568268668432
 11
240.0401274463984
 21
57.25568268668432
  0
LINE
  5
A9
100
AcDbEntity
  8
EXT
  6
ByLayer
 62
  256
370
   -1
100
AcDbLine
 10
240.0401274463984
 20
57.25568268668432
 11
249.9991274463985
 21
57.25568268668432
  0
LINE
  5
AA
100
AcDbEntity
  8
EXT
  6
ByLayer
 62
  256
370
   -1
100
AcDbLine
 10
249.9991274463985
 20
57.25568268668432
 11
249.9991274463985
 21
55.25568268668432
  0
LINE
  5
AB
100
AcDbEntity
  8
EXT
  6
ByLayer
 62
  256
370
   -1
100
AcDbLine
 10
259.8581274463985
 20
55.25568268668432
 11
259.8581274463985
 21
57.25568268668432
  0
LINE
  5
AC
100
AcDbEntity
  8
EXT
  6
ByLayer
 62
  256
370
   -1
100
AcDbLine
 10
259.8581274463985
 20
57.25568268668432
 11
269.8171274463985
 21
57.25568268668432
  0
LINE
  5
AD
100
AcDbEntity
  8
EXT
  6
ByLayer
 62
  256
370
   -1
100
AcDbLine
 10
269.8171274463985
 20
57.25568268668432
 11
269.8171274463985
 21
55.25568268668432
  0
LINE
  5
AE
100
AcDbEntity
  8
EXT
  6
ByLayer
 62
  256
370
   -1
100
AcDbLine
 10
277.2021274463985
 20
55.25568268668432
 11
269.8171274463985
 21
55.25568268668432
  0
LINE
  5
AF
100
AcDbEntity
  8
EXT
  6
ByLayer
 62
  256
370
   -1
100
AcDbLine
 10
259.8581274463985
 20
55.25568268668432
 11
249.9991274463985
 21
55.25568268668432
  0
LINE
  5
B0
100
AcDbEntity
  8
EXT
  6
ByLayer
 62
  256
370
   -1
100
AcDbLine
 10
180.5861274463983
 20
55.25568268668432
 11
180.5861274463983
 21
57.25568268668432
  0
LINE
  5
B1
100
AcDbEntity
  8
EXT
  6
ByLayer
 62
  256
370
   -1
100
AcDbLine
 10
180.5861274463983
 20
57.25568268668432
 11
190.5451274463985
 21
57.25568268668432
  0
LINE
  5
B2
100
AcDbEntity
  8
EXT
  6
ByLayer
 62
  256
370
   -1
100
AcDbLine
 10
190.5451274463985
 20
57.25568268668432
 11
190.5451274463985
 21
55.25568268668432
  0
LINE
  5
B3
100
AcDbEntity
  8
EXT
  6
ByLayer
 62
  256
370
   -1
100
AcDbLine
 10
200.4041274463984
 20
55.25568268668432
 11
200.4041274463984
 21
57.25568268668432
  0
LINE
  5
B4
100
AcDbEntity
  8
EXT
  6
ByLayer
 62
  256
370
   -1
100
AcDbLine
 10
200.4041274463984
 20
57.25568268668432
 11
210.3631274463984
 21
57.25568268668432
  0
LINE
  5
B5
100
AcDbEntity
  8
EXT
  6
ByLayer
 62
  256
370
   -1
100
AcDbLine
 10
210.3631274463984
 20
57.25568268668432
 11
210.3631274463984
 21
55.25568268668432
  0
LINE
  5
B6
100
AcDbEntity
  8
EXT
  6
ByLayer
 62
  256
370
   -1
100
AcDbLine
 10
220.2221274463984
 20
55.25568268668432
 11
220.2221274463984
 21
57.25568268668432
  0
LINE
  5
B7
100
AcDbEntity
  8
EXT
  6
ByLayer
 62
  256
370
   -1
100
AcDbLine
 10
220.2221274463984
 20
57.25568268668432
 11
230.1811274463984
 21
57.25568268668432
  0
LINE
  5
B8
100
AcDbEntity
  8
EXT
  6
ByLayer
 62
  256
370
   -1
100
AcDbLine
 10
230.1811274463984
 20
57.25568268668432
 11
230.1811274463984
 21
55.25568268668432
  0
LINE
  5
B9
100
AcDbEntity
  8
EXT
  6
ByLayer
 62
  256
370
   -1
100
AcDbLine
 10
240.0401274463984
 20
55.25568268668432
 11
230.1811274463984
 21
55.25568268668432
  0
LINE
  5
BA
100
AcDbEntity
  8
EXT
  6
ByLayer
 62
  256
370
   -1
100
AcDbLine
 10
220.2221274463984
 20
55.25568268668432
 11
210.3631274463984
 21
55.25568268668432
  0
LINE
  5
BB
100
AcDbEntity
  8
EXT
  6
ByLayer
 62
  256
370
   -1
100
AcDbLine
 10
200.4041274463984
 20
55.25568268668432
 11
190.5451274463985
 21
55.25568268668432
  0
LINE
  5
BC
100
AcDbEntity
  8
EXT
  6
ByLayer
 62
  256
370
   -1
100
AcDbLine
 10
180.5861274463983
 20
55.25568268668432
 11
173.2021274463983
 21
55.25568268668432
  0
LINE
  5
BD
100
AcDbEntity
  8
EXT
  6
ByLayer
 62
  256
370
   -1
100
AcDbLine
 10
230.1811274463983
 20
40.25568268668433
 11
230.1811274463983
 21
42.25568268668433
  0
LINE
  5
BE
100
AcDbEntity
  8
EXT
  6
ByLayer
 62
  256
370
   -1
100
AcDbLine
 10
230.1811274463983
 20
42.25568268668433
 11
240.0401274463983
 21
42.25568268668433
  0
LINE
  5
BF
100
AcDbEntity
  8
EXT
  6
ByLayer
 62
  256
370
   -1
100
AcDbLine
 10
240.0401274463983
 20
42.25568268668433
 11
240.0401274463983
 21
40.25568268668433
  0
LINE
  5
C0
100
AcDbEntity
  8
EXT
  6
ByLayer
 62
  256
370
   -1
100
AcDbLine
 10
240.0401274463983
 20
40.25568268668433
 11
249.9991274463983
 21
40.25568268668433
  0
LINE
  5
C1
100
AcDbEntity
  8
EXT
  6
ByLayer
 62
  256
370
   -1
100
AcDbLine
 10
249.9991274463983
 20
40.25568268668433
 11
249.9991274463983
 21
42.25568268668433
  0
LINE
  5
C2
100
AcDbEntity
  8
EXT
  6
ByLayer
 62
  256
370
   -1
100
AcDbLine
 10
249.9991274463983
 20
42.25568268668433
 11
259.8581274463983
 21
42.25568268668433
  0
LINE
  5
C3
100
AcDbEntity
  8
EXT
  6
ByLayer
 62
  256
370
   -1
100
AcDbLine
 10
259.8581274463983
 20
42.25568268668433
 11
259.8581274463983
 21
40.25568268668433
  0
LINE
  5
C4
100
AcDbEntity
  8
EXT
  6
ByLayer
 62
  256
370
   -1
100
AcDbLine
 10
259.8581274463983
 20
40.25568268668433
 11
279.2021274463983
 21
40.25568268668432
  0
LINE
  5
C5
100
AcDbEntity
  8
EXT
  6
ByLayer
 62
  256
370
   -1
100
AcDbLine
 10
277.2021274463983
 20
40.25568268668432
 11
294.2021274463983
 21
40.25568268668432
  0
LINE
  5
C6
100
AcDbEntity
  8
EXT
  6
ByLayer
 62
  256
370
   -1
100
AcDbLine
 10
294.2021274463983
 20
40.25568268668432
 11
294.2021274463983
 21
31.24999999999997
  0
LINE
  5
C7
100
AcDbEntity
  8
EXT
  6
ByLayer
 62
  256
370
   -1
100
AcDbLine
 10
156.2021274463983
 20
40.25568268668432
 11
173.2021274463983
 21
40.25568268668432
  0
LINE
  5
C8
100
AcDbEntity
  8
EXT
  6
ByLayer
 62
  256
370
   -1
100
AcDbLine
 10
119.0401274463982
 20
42.25568268668432
 11
119.0401274463982
 21
40.25568268668432
  0
LINE
  5
C9
100
AcDbEntity
  8
EXT
  6
ByLayer
 62
  256
370
   -1
100
AcDbLine
 10
119.0401274463982
 20
40.25568268668432
 11
128.9991274463983
 21
40.25568268668432
  0
LINE
  5
CA
100
AcDbEntity
  8
EXT
  6
ByLayer
 62
  256
370
   -1
100
AcDbLine
 10
128.9991274463983
 20
40.25568268668432
 11
128.9991274463983
 21
42.25568268668432
  0
LINE
  5
CB
100
AcDbEntity
  8
EXT
  6
ByLayer
 62
  256
370
   -1
100
AcDbLine
 10
138.8581274463983
 20
42.25568268668432
 11
138.8581274463983
 21
40.25568268668432
  0
LINE
  5
CC
100
AcDbEntity
  8
EXT
  6
ByLayer
 62
  256
370
   -1
100
AcDbLine
 10
138.8581274463983
 20
40.25568268668432
 11
148.8171274463983
 21
40.25568268668432
  0
LINE
  5
CD
100
AcDbEntity
  8
EXT
  6
ByLayer
 62
  256
370
   -1
100
AcDbLine
 10
148.8171274463983
 20
40.25568268668432
 11
148.8171274463983
 21
42.25568268668432
  0
LINE
  5
CE
100
AcDbEntity
  8
EXT
  6
ByLayer
 62
  256
370
   -1
100
AcDbLine
 10
156.2021274463983
 20
42.25568268668432
 11
148.8171274463983
 21
42.25568268668432
  0
LINE
  5
CF
100
AcDbEntity
  8
EXT
  6
ByLayer
 62
  256
370
   -1
100
AcDbLine
 10
138.8581274463983
 20
42.25568268668432
 11
128.9991274463983
 21
42.25568268668432
  0
LINE
  5
D0
100
AcDbEntity
  8
EXT
  6
ByLayer
 62
  256
370
   -1
100
AcDbLine
 10
59.58612744639814
 20
42.25568268668432
 11
59.58612744639814
 21
40.25568268668432
  0
LINE
  5
D1
100
AcDbEntity
  8
EXT
  6
ByLayer
 62
  256
370
   -1
100
AcDbLine
 10
59.58612744639814
 20
40.25568268668432
 11
69.54512744639834
 21
40.25568268668432
  0
LINE
  5
D2
100
AcDbEntity
  8
EXT
  6
ByLayer
 62
  256
370
   -1
100
AcDbLine
 10
69.54512744639834
 20
40.25568268668432
 11
69.54512744639834
 21
42.25568268668432
  0
LINE
  5
D3
100
AcDbEntity
  8
EXT
  6
ByLayer
 62
  256
370
   -1
100
AcDbLine
 10
79.40412744639823
 20
42.25568268668432
 11
79.40412744639823
 21
40.25568268668432
  0
LINE
  5
D4
100
AcDbEntity
  8
EXT
  6
ByLayer
 62
  256
370
   -1
100
AcDbLine
 10
79.40412744639823
 20
40.25568268668432
 11
89.36312744639824
 21
40.25568268668432
  0
LINE
  5
D5
100
AcDbEntity
  8
EXT
  6
ByLayer
 62
  256
370
   -1
100
AcDbLine
 10
89.36312744639824
 20
40.25568268668432
 11
89.36312744639824
 21
42.25568268668432
  0
LINE
  5
D6
100
AcDbEntity
  8
EXT
  6
ByLayer
 62
  256
370
   -1
100
AcDbLine
 10
99.22212744639822
 20
42.25568268668432
 11
99.22212744639822
 21
40.25568268668432
  0
LINE
  5
D7
100
AcDbEntity
  8
EXT
  6
ByLayer
 62
  256
370
   -1
100
AcDbLine
 10
99.22212744639822
 20
40.25568268668432
 11
109.1811274463982
 21
40.25568268668432
  0
LINE
  5
D8
100
AcDbEntity
  8
EXT
  6
ByLayer
 62
  256
370
   -1
100
AcDbLine
 10
109.1811274463982
 20
40.25568268668432
 11
109.1811274463982
 21
42.25568268668432
  0
LINE
  5
D9
100
AcDbEntity
  8
EXT
  6
ByLayer
 62
  256
370
   -1
100
AcDbLine
 10
119.0401274463982
 20
42.25568268668432
 11
109.1811274463982
 21
42.25568268668432
  0
LINE
  5
DA
100
AcDbEntity
  8
EXT
  6
ByLayer
 62
  256
370
   -1
100
AcDbLine
 10
99.22212744639822
 20
42.25568268668432
 11
89.36312744639824
 21
42.25568268668432
  0
LINE
  5
DB
100
AcDbEntity
  8
EXT
  6
ByLayer
 62
  256
370
   -1
100
AcDbLine
 10
79.40412744639823
 20
42.25568268668432
 11
69.54512744639834
 21
42.25568268668432
  0
LINE
  5
DC
100
AcDbEntity
  8
EXT
  6
ByLayer
 62
  256
370
   -1
100
AcDbLine
 10
59.58612744639814
 20
42.25568268668432
 11
52.20212744639809
 21
42.25568268668432
  0
LINE
  5
DD
100
AcDbEntity
  8
EXT
  6
ByLayer
 62
  256
370
   -1
100
AcDbLine
 10
52.20212744639821
 20
42.25568268668432
 11
52.20212744639821
 21
31.24999999999994
  0
LINE
  5
DE
100
AcDbEntity
  8
EXT
  6
ByLayer
 62
  256
370
   -1
100
AcDbLine
 10
226.0623485347243
 20
49.55568268668432
 11
226.0623485347243
 21
40.25568268668432
  0
LINE
  5
DF
100
AcDbEntity
  8
EXT
  6
ByLayer
 62
  256
370
   -1
100
AcDbLine
 10
171.2021274463983
 20
49.55568268668432
 11
171.2021274463983
 21
55.25568268668432
  0
ARC
  5
E0
100
AcDbEntity
  8
INT
  6
ByLayer
 62
  256
370
   -1
100
AcDbCircle
 10
241.5623485347243
 20
49.55568268668432
 40
0.5
100
AcDbArc
 50
0
 51
90
  0
LINE
  5
E1
100
AcDbEntity
  8
INT
  6
ByLayer
 62
  256
370
   -1
100
AcDbLine
 10
242.0623485347243
 20
45.55568268668431
 11
242.0623485347243
 21
49.55568268668432
  0
ARC
  5
E2
100
AcDbEntity
  8
INT
  6
ByLayer
 62
  256
370
   -1
100
AcDbCircle
 10
241.5623485347243
 20
45.55568268668431
 40
0.5
100
AcDbArc
 50
270
 51
0
  0
ARC
  5
E3
100
AcDbEntity
  8
INT
  6
ByLayer
 62
  256
370
   -1
100
AcDbCircle
 10
228.0623485347243
 20
49.55568268668432
 40
0.5
100
AcDbArc
 50
90
 51
180
  0
LINE
  5
E4
100
AcDbEntity
  8
INT
  6
ByLayer
 62
  256
370
   -1
100
AcDbLine
 10
227.5623485347243
 20
49.55568268668432
 11
227.5623485347243
 21
45.55568268668431
  0
ARC
  5
E5
100
AcDbEntity
  8
INT
  6
ByLayer
 62
  256
370
   -1
100
AcDbCircle
 10
228.0623485347243
 20
45.55568268668431
 40
0.5
100
AcDbArc
 50
180
 51
270
  0
LINE
  5
E6
100
AcDbEntity
  8
INT
  6
ByLayer
 62
  256
370
   -1
100
AcDbLine
 10
241.5623485347243
 20
50.05568268668432
 11
228.0623516753533
 21
50.05568268668434
  0
LINE
  5
E7
100
AcDbEntity
  8
INT
  6
ByLayer
 62
  256
370
   -1
100
AcDbLine
 10
228.0623495559009
 20
45.05568268668431
 11
241.5623485347243
 21
45.05568268668431
  0
ARC
  5
E8
100
AcDbEntity
  8
INT
  6
ByLayer
 62
  256
370
   -1
100
AcDbCircle
 10
181.1873485347244
 20
22.69999999999999
 40
1
100
AcDbArc
 50
90
 51
180
  0
LINE
  5
E9
100
AcDbEntity
  8
INT
  6
ByLayer
 62
  256
370
   -1
100
AcDbLine
 10
189.2073485347244
 20
23.69999999999999
 11
181.1873485347244
 21
23.69999999999999
  0
ARC
  5
EA
100
AcDbEntity
  8
INT
  6
ByLayer
 62
  256
370
   -1
100
AcDbCircle
 10
189.2073485347244
 20
22.69999999999999
 40
1
100
AcDbArc
 50
0
 51
90
  0
LINE
  5
EB
100
AcDbEntity
  8
INT
  6
ByLayer
 62
  256
370
   -1
100
AcDbLine
 10
190.2073485347244
 20
-1.500000000000028
 11
190.2073485347244
 21
22.69999999999999
  0
ARC
  5
EC
100
AcDbEntity
  8
INT
  6
ByLayer
 62
  256
370
   -1
100
AcDbCircle
 10
189.2073485347243
 20
-1.500000000000028
 40
1
100
AcDbArc
 50
270
 51
0
  0
LINE
  5
ED
100
AcDbEntity
  8
INT
  6
ByLayer
 62
  256
370
   -1
100
AcDbLine
 10
181.1873485347243
 20
-2.500000000000028
 11
189.2073485347243
 21
-2.500000000000028
  0
LINE
  5
EE
100
AcDbEntity
  8
INT
  6
ByLayer
 62
  256
370
   -1
100
AcDbLine
 10
180.1873485347244
 20
22.69999999999999
 11
180.1873485347244
 21
-1.5
  0
ARC
  5
EF
100
AcDbEntity
  8
INT
  6
ByLayer
 62
  256
370
   -1
100
AcDbCircle
 10
181.1873485347243
 20
-1.500000000000028
 40
1
100
AcDbArc
 50
179.9999999999998
 51
270
  0
ARC
  5
F0
100
AcDbEntity
  8
INT
  6
ByLayer
 62
  256
370
   -1
100
AcDbCircle
 10
198.3323485347244
 20
22.69999999999999
 40
1
100
AcDbArc
 50
90
 51
180
  0
LINE
  5
F1
100
AcDbEntity
  8
INT
  6
ByLayer
 62
  256
370
   -1
100
AcDbLine
 10
206.3523485347244
 20
23.69999999999999
 11
198.3323485347244
 21
23.69999999999999
  0
ARC
  5
F2
100
AcDbEntity
  8
INT
  6
ByLayer
 62
  256
370
   -1
100
AcDbCircle
 10
206.3523485347244
 20
22.69999999999999
 40
1
100
AcDbArc
 50
0
 51
90
  0
LINE
  5
F3
100
AcDbEntity
  8
INT
  6
ByLayer
 62
  256
370
   -1
100
AcDbLine
 10
207.3523485347244
 20
-1.500000000000028
 11
207.3523485347244
 21
22.69999999999999
  0
ARC
  5
F4
100
AcDbEntity
  8
INT
  6
ByLayer
 62
  256
370
   -1
100
AcDbCircle
 10
206.3523485347243
 20
-1.500000000000028
 40
1
100
AcDbArc
 50
270
 51
0
  0
LINE
  5
F5
100
AcDbEntity
  8
INT
  6
ByLayer
 62
  256
370
   -1
100
AcDbLine
 10
198.3323485347243
 20
-2.500000000000028
 11
206.3523485347243
 21
-2.500000000000028
  0
LINE
  5
F6
100
AcDbEntity
  8
INT
  6
ByLayer
 62
  256
370
   -1
100
AcDbLine
 10
197.3323485347244
 20
22.69999999999999
 11
197.3323485347244
 21
-1.5
  0
ARC
  5
F7
100
AcDbEntity
  8
INT
  6
ByLayer
 62
  256
370
   -1
100
AcDbCircle
 10
198.3323485347243
 20
-1.500000000000028
 40
1
100
AcDbArc
 50
179.9999999999998
 51
270
  0
ARC
  5
F8
100
AcDbEntity
  8
INT
  6
ByLayer
 62
  256
370
   -1
100
AcDbCircle
 10
215.4773485347243
 20
22.69999999999999
 40
1
100
AcDbArc
 50
90
 51
180
  0
LINE
  5
F9
100
AcDbEntity
  8
INT
  6
ByLayer
 62
  256
370
   -1
100
AcDbLine
 10
223.4973485347244
 20
23.69999999999999
 11
215.4773485347243
 21
23.69999999999999
  0
ARC
  5
FA
100
AcDbEntity
  8
INT
  6
ByLayer
 62
  256
370
   -1
100
AcDbCircle
 10
223.4973485347244
 20
22.69999999999999
 40
1
100
AcDbArc
 50
0
 51
90
  0
LINE
  5
FB
100
AcDbEntity
  8
INT
  6
ByLayer
 62
  256
370
   -1
100
AcDbLine
 10
224.4973485347244
 20
-1.500000000000028
 11
224.4973485347244
 21
22.69999999999999
  0
ARC
  5
FC
100
AcDbEntity
  8
INT
  6
ByLayer
 62
  256
370
   -1
100
AcDbCircle
 10
223.4973485347243
 20
-1.500000000000028
 40
1
100
AcDbArc
 50
270
 51
0
  0
LINE
  5
FD
100
AcDbEntity
  8
INT
  6
ByLayer
 62
  256
370
   -1
100
AcDbLine
 10
215.4773485347243
 20
-2.500000000000028
 11
223.4973485347243
 21
-2.500000000000028
  0
LINE
  5
FE
100
AcDbEntity
  8
INT
  6
ByLayer
 62
  256
370
   -1
100
AcDbLine
 10
214.4773485347243
 20
22.69999999999999
 11
214.4773485347243
 21
-1.5
  0
ARC
  5
FF
100
AcDbEntity
  8
INT
  6
ByLayer
 62
  256
370
   -1
100
AcDbCircle
 10
215.4773485347243
 20
-1.500000000000028
 40
1
100
AcDbArc
 50
179.9999999999998
 51
270
  0
ARC
  5
100
100
AcDbEntity
  8
INT
  6
ByLayer
 62
  256
370
   -1
100
AcDbCircle
 10
233.2573485347244
 20
22.69999999999999
 40
1
100
AcDbArc
 50
90
 51
180
  0
LINE
  5
101
100
AcDbEntity
  8
INT
  6
ByLayer
 62
  256
370
   -1
100
AcDbLine
 10
241.2773485347244
 20
23.69999999999999
 11
233.2573485347244
 21
23.69999999999999
  0
ARC
  5
102
100
AcDbEntity
  8
INT
  6
ByLayer
 62
  256
370
   -1
100
AcDbCircle
 10
241.2773485347244
 20
22.69999999999999
 40
1
100
AcDbArc
 50
0
 51
90
  0
LINE
  5
103
100
AcDbEntity
  8
INT
  6
ByLayer
 62
  256
370
   -1
100
AcDbLine
 10
242.2773485347244
 20
-1.500000000000028
 11
242.2773485347244
 21
22.69999999999999
  0
ARC
  5
104
100
AcDbEntity
  8
INT
  6
ByLayer
 62
  256
370
   -1
100
AcDbCircle
 10
241.2773485347244
 20
-1.500000000000028
 40
1
100
AcDbArc
 50
270
 51
0
  0
LINE
  5
105
100
AcDbEntity
  8
INT
  6
ByLayer
 62
  256
370
   -1
100
AcDbLine
 10
233.2573485347243
 20
-2.500000000000028
 11
241.2773485347244
 21
-2.500000000000028
  0
LINE
  5
106
100
AcDbEntity
  8
INT
  6
ByLayer
 62
  256
370
   -1
100
AcDbLine
 10
232.2573485347244
 20
22.69999999999999
 11
232.2573485347244
 21
-1.5
  0
ARC
  5
107
100
AcDbEntity
  8
INT
  6
ByLayer
 62
  256
370
   -1
100
AcDbCircle
 10
233.2573485347243
 20
-1.500000000000028
 40
1
100
AcDbArc
 50
179.9999999999998
 51
270
  0
ARC
  5
108
100
AcDbEntity
  8
INT
  6
ByLayer
 62
  256
370
   -1
100
AcDbCircle
 10
250.4023485347244
 20
22.69999999999999
 40
1
100
AcDbArc
 50
90
 51
180
  0
LINE
  5
109
100
AcDbEntity
  8
INT
  6
ByLayer
 62
  256
370
   -1
100
AcDbLine
 10
258.4223485347244
 20
23.69999999999999
 11
250.4023485347244
 21
23.69999999999999
  0
ARC
  5
10A
100
AcDbEntity
  8
INT
  6
ByLayer
 62
  256
370
   -1
100
AcDbCircle
 10
258.4223485347244
 20
22.69999999999999
 40
1
100
AcDbArc
 50
0
 51
90
  0
LINE
  5
10B
100
AcDbEntity
  8
INT
  6
ByLayer
 62
  256
370
   -1
100
AcDbLine
 10
259.4223485347244
 20
-1.500000000000028
 11
259.4223485347244
 21
22.69999999999999
  0
ARC
  5
10C
100
AcDbEntity
  8
INT
  6
ByLayer
 62
  256
370
   -1
100
AcDbCircle
 10
258.4223485347243
 20
-1.500000000000028
 40
1
100
AcDbArc
 50
270
 51
0
  0
LINE
  5
10D
100
AcDbEntity
  8
INT
  6
ByLayer
 62
  256
370
   -1
100
AcDbLine
 10
250.4023485347243
 20
-2.500000000000028
 11
258.4223485347243
 21
-2.500000000000028
  0
LINE
  5
10E
100
AcDbEntity
  8
INT
  6
ByLayer
 62
  256
370
   -1
100
AcDbLine
 10
249.4023485347244
 20
22.69999999999999
 11
249.4023485347244
 21
-1.5
  0
ARC
  5
10F
100
AcDbEntity
  8
INT
  6
ByLayer
 62
  256
370
   -1
100
AcDbCircle
 10
250.4023485347243
 20
-1.500000000000028
 40
1
100
AcDbArc
 50
179.9999999999998
 51
270
  0
CIRCLE
  5
110
100
AcDbEntity
  8
INT
  6
ByLayer
 62
  256
370
   -1
100
AcDbCircle
 10
260.2573485347243
 20
31.77568268668435
 40
2.169999999999959
  0
CIRCLE
  5
111
100
AcDbEntity
  8
INT
  6
ByLayer
 62
  256
370
   -1
100
AcDbCircle
 10
201.5473485347243
 20
-7.089317313315661
 40
1.5875
  0
CIRCLE
  5
112
100
AcDbEntity
  8
INT
  6
ByLayer
 62
  256
370
   -1
100
AcDbCircle
 10
257.7473485347244
 20
-12.18931731331566
 40
1.5875
  0
CIRCLE
  5
113
100
AcDbEntity
  8
INT
  6
ByLayer
 62
  256
370
   -1
100
AcDbCircle
 10
266.4773485347243
 20
18.58568268668432
 40
3
  0
CIRCLE
  5
114
100
AcDbEntity
  8
INT
  6
ByLayer
 62
  256
370
   -1
100
AcDbCircle
 10
266.4773485347243
 20
5.885682686684333
 40
3
  0
CIRCLE
  5
115
100
AcDbEntity
  8
INT
  6
ByLayer
 62
  256
370
   -1
100
AcDbCircle
 10
189.7693485347243
 20
-6.589217313315658
 40
3
  0
CIRCLE
  5
116
100
AcDbEntity
  8
INT
  6
ByLayer
 62
  256
370
   -1
100
AcDbCircle
 10
80.54734853472439
 20
-7.089317313315689
 40
1.5875
  0
CIRCLE
  5
117
100
AcDbEntity
  8
INT
  6
ByLayer
 62
  256
370
   -1
100
AcDbCircle
 10
136.7473485347244
 20
-12.18931731331567
 40
1.5875
  0
LINE
  5
118
100
AcDbEntity
  8
INT
  6
ByLayer
 62
  256
370
   -1
100
AcDbLine
 10
259.8581274463983
 20
-18.48931731331569
 11
269.8171274463983
 21
-18.48931731331569
  0
LINE
  5
119
100
AcDbEntity
  8
INT
  6
ByLayer
 62
  256
370
   -1
100
AcDbLine
 10
269.8171274463983
 20
-18.48931731331569
 11
269.8171274463983
 21
-20.5393173133157
  0
LINE
  5
11A
100
AcDbEntity
  8
INT
  6
ByLayer
 62
  256
370
   -1
100
AcDbLine
 10
269.8171274463983
 20
-20.5393173133157
 11
259.8581274463983
 21
-20.5393173133157
  0
LINE
  5
11B
100
AcDbEntity
  8
INT
  6
ByLayer
 62
  256
370
   -1
100
AcDbLine
 10
259.8581274463983
 20
-20.5393173133157
 11
259.8581274463983
 21
-18.48931731331569
  0
LINE
  5
11C
100
AcDbEntity
  8
INT
  6
ByLayer
 62
  256
370
   -1
100
AcDbLine
 10
249.9991274463983
 20
-18.48931731331569
 11
240.0401274463983
 21
-18.48931731331569
  0
LINE
  5
11D
100
AcDbEntity
  8
INT
  6
ByLayer
 62
  256
370
   -1
100
AcDbLine
 10
240.0401274463983
 20
-18.48931731331569
 11
240.0401274463983
 21
-20.5393173133157
  0
LINE
  5
11E
100
AcDbEntity
  8
INT
  6
ByLayer
 62
  256
370
   -1
100
AcDbLine
 10
240.0401274463983
 20
-20.5393173133157
 11
249.9991274463983
 21
-20.5393173133157
  0
LINE
  5
11F
100
AcDbEntity
  8
INT
  6
ByLayer
 62
  256
370
   -1
100
AcDbLine
 10
249.9991274463983
 20
-20.5393173133157
 11
249.9991274463983
 21
-18.48931731331569
  0
LINE
  5
120
100
AcDbEntity
  8
INT
  6
ByLayer
 62
  256
370
   -1
100
AcDbLine
 10
230.1811274463983
 20
-18.48931731331569
 11
220.2221274463983
 21
-18.48931731331569
  0
LINE
  5
121
100
AcDbEntity
  8
INT
  6
ByLayer
 62
  256
370
   -1
100
AcDbLine
 10
220.2221274463983
 20
-18.48931731331569
 11
220.2221274463983
 21
-20.5393173133157
  0
LINE
  5
122
100
AcDbEntity
  8
INT
  6
ByLayer
 62
  256
370
   -1
100
AcDbLine
 10
220.2221274463983
 20
-20.5393173133157
 11
230.1811274463983
 21
-20.5393173133157
  0
LINE
  5
123
100
AcDbEntity
  8
INT
  6
ByLayer
 62
  256
370
   -1
100
AcDbLine
 10
230.1811274463983
 20
-20.5393173133157
 11
230.1811274463983
 21
-18.48931731331569
  0
LINE
  5
124
100
AcDbEntity
  8
INT
  6
ByLayer
 62
  256
370
   -1
100
AcDbLine
 10
210.3631274463983
 20
-18.48931731331569
 11
200.4041274463983
 21
-18.48931731331569
  0
LINE
  5
125
100
AcDbEntity
  8
INT
  6
ByLayer
 62
  256
370
   -1
100
AcDbLine
 10
200.4041274463983
 20
-18.48931731331569
 11
200.4041274463983
 21
-20.5393173133157
  0
LINE
  5
126
100
AcDbEntity
  8
INT
  6
ByLayer
 62
  256
370
   -1
100
AcDbLine
 10
200.4041274463983
 20
-20.5393173133157
 11
210.3631274463983
 21
-20.5393173133157
  0
LINE
  5
127
100
AcDbEntity
  8
INT
  6
ByLayer
 62
  256
370
   -1
100
AcDbLine
 10
210.3631274463983
 20
-20.5393173133157
 11
210.3631274463983
 21
-18.48931731331569
  0
LINE
  5
128
100
AcDbEntity
  8
INT
  6
ByLayer
 62
  256
370
   -1
100
AcDbLine
 10
190.5451274463983
 20
-20.5393173133157
 11
190.5451274463983
 21
-18.48931731331569
  0
LINE
  5
129
100
AcDbEntity
  8
INT
  6
ByLayer
 62
  256
370
   -1
100
AcDbLine
 10
190.5451274463983
 20
-18.48931731331569
 11
180.5861274463983
 21
-18.48931731331569
  0
LINE
  5
12A
100
AcDbEntity
  8
INT
  6
ByLayer
 62
  256
370
   -1
100
AcDbLine
 10
180.5861274463983
 20
-18.48931731331569
 11
180.5861274463983
 21
-20.5393173133157
  0
LINE
  5
12B
100
AcDbEntity
  8
INT
  6
ByLayer
 62
  256
370
   -1
100
AcDbLine
 10
180.5861274463983
 20
-20.5393173133157
 11
190.5451274463983
 21
-20.5393173133157
  0
LINE
  5
12C
100
AcDbEntity
  8
INT
  6
ByLayer
 62
  256
370
   -1
100
AcDbLine
 10
138.8581274463983
 20
-18.48931731331572
 11
148.8171274463983
 21
-18.48931731331572
  0
LINE
  5
12D
100
AcDbEntity
  8
INT
  6
ByLayer
 62
  256
370
   -1
100
AcDbLine
 10
148.8171274463983
 20
-18.48931731331572
 11
148.8171274463983
 21
-20.53931731331571
  0
LINE
  5
12E
100
AcDbEntity
  8
INT
  6
ByLayer
 62
  256
370
   -1
100
AcDbLine
 10
148.8171274463983
 20
-20.53931731331571
 11
138.8581274463983
 21
-20.53931731331571
  0
LINE
  5
12F
100
AcDbEntity
  8
INT
  6
ByLayer
 62
  256
370
   -1
100
AcDbLine
 10
138.8581274463983
 20
-20.53931731331571
 11
138.8581274463983
 21
-18.48931731331572
  0
LINE
  5
130
100
AcDbEntity
  8
INT
  6
ByLayer
 62
  256
370
   -1
100
AcDbLine
 10
128.9991274463983
 20
-18.48931731331572
 11
119.0401274463982
 21
-18.48931731331572
  0
LINE
  5
131
100
AcDbEntity
  8
INT
  6
ByLayer
 62
  256
370
   -1
100
AcDbLine
 10
119.0401274463982
 20
-18.48931731331572
 11
119.0401274463982
 21
-20.53931731331571
  0
LINE
  5
132
100
AcDbEntity
  8
INT
  6
ByLayer
 62
  256
370
   -1
100
AcDbLine
 10
119.0401274463982
 20
-20.53931731331571
 11
128.9991274463983
 21
-20.53931731331571
  0
LINE
  5
133
100
AcDbEntity
  8
INT
  6
ByLayer
 62
  256
370
   -1
100
AcDbLine
 10
128.9991274463983
 20
-20.53931731331571
 11
128.9991274463983
 21
-18.48931731331572
  0
LINE
  5
134
100
AcDbEntity
  8
INT
  6
ByLayer
 62
  256
370
   -1
100
AcDbLine
 10
109.1811274463982
 20
-18.48931731331572
 11
99.22212744639825
 21
-18.48931731331572
  0
LINE
  5
135
100
AcDbEntity
  8
INT
  6
ByLayer
 62
  256
370
   -1
100
AcDbLine
 10
99.22212744639825
 20
-18.48931731331572
 11
99.22212744639825
 21
-20.53931731331571
  0
LINE
  5
136
100
AcDbEntity
  8
INT
  6
ByLayer
 62
  256
370
   -1
100
AcDbLine
 10
99.22212744639825
 20
-20.53931731331571
 11
109.1811274463982
 21
-20.53931731331571
  0
LINE
  5
137
100
AcDbEntity
  8
INT
  6
ByLayer
 62
  256
370
   -1
100
AcDbLine
 10
109.1811274463982
 20
-20.53931731331571
 11
109.1811274463982
 21
-18.48931731331572
  0
LINE
  5
138
100
AcDbEntity
  8
INT
  6
ByLayer
 62
  256
370
   -1
100
AcDbLine
 10
89.36312744639829
 20
-18.48931731331572
 11
79.40412744639832
 21
-18.48931731331572
  0
LINE
  5
139
100
AcDbEntity
  8
INT
  6
ByLayer
 62
  256
370
   -1
100
AcDbLine
 10
79.40412744639832
 20
-18.48931731331572
 11
79.40412744639832
 21
-20.53931731331571
  0
LINE
  5
13A
100
AcDbEntity
  8
INT
  6
ByLayer
 62
  256
370
   -1
100
AcDbLine
 10
79.40412744639832
 20
-20.53931731331571
 11
89.36312744639829
 21
-20.53931731331571
  0
LINE
  5
13B
100
AcDbEntity
  8
INT
  6
ByLayer
 62
  256
370
   -1
100
AcDbLine
 10
89.36312744639829
 20
-20.53931731331571
 11
89.36312744639829
 21
-18.48931731331572
  0
LINE
  5
13C
100
AcDbEntity
  8
EXT
  6
ByLayer
 62
  256
370
   -1
100
AcDbLine
 10
69.54512744639834
 20
-20.53931731331571
 11
69.54512744639834
 21
-18.4893173133157
  0
LINE
  5
13D
100
AcDbEntity
  8
EXT
  6
ByLayer
 62
  256
370
   -1
100
AcDbLine
 10
69.54512744639834
 20
-18.4893173133157
 11
59.58612744639834
 21
-18.4893173133157
  0
LINE
  5
13E
100
AcDbEntity
  8
EXT
  6
ByLayer
 62
  256
370
   -1
100
AcDbLine
 10
59.58612744639834
 20
-18.4893173133157
 11
59.58612744639834
 21
-20.53931731331571
  0
LINE
  5
13F
100
AcDbEntity
  8
EXT
  6
ByLayer
 62
  256
370
   -1
100
AcDbLine
 10
54.14734903472439
 20
-30.00000000000003
 11
54.14734903472439
 21
-20.53931731331571
  0
LINE
  5
140
100
AcDbEntity
  8
EXT
  6
ByLayer
 62
  256
370
   -1
100
AcDbLine
 10
61.14734903472439
 20
-30.00000000000003
 11
61.14734903472439
 21
-20.53931731331571
  0
LINE
  5
141
100
AcDbEntity
  8
EXT
  6
ByLayer
 62
  256
370
   -1
100
AcDbLine
 10
54.1473490347244
 20
-20.53931731331571
 11
59.58612744639834
 21
-20.53931731331571
  0
LINE
  5
142
100
AcDbEntity
  8
EXT
  6
ByLayer
 62
  256
370
   -1
100
AcDbLine
 10
61.1473490347244
 20
-20.53931731331571
 11
69.54512744639834
 21
-20.53931731331571
  0
LINE
  5
143
100
AcDbEntity
  8
INT
  6
ByLayer
 62
  256
370
   -1
100
AcDbLine
 10
265.1741552704809
 20
42.25568268668434
 11
265.1741552704809
 21
40.25568268668433
  0
LINE
  5
144
100
AcDbEntity
  8
INT
  6
ByLayer
 62
  256
370
   -1
100
AcDbLine
 10
273.8205417989677
 20
42.25568268668431
 11
273.8205417989677
 21
40.25568268668433
  0
LINE
  5
145
100
AcDbEntity
  8
INT
  6
ByLayer
 62
  256
370
   -1
100
AcDbLine
 10
265.1741552704809
 20
40.25568268668433
 11
265.1741552704809
 21
39.01068268668431
  0
LINE
  5
146
100
AcDbEntity
  8
INT
  6
ByLayer
 62
  256
370
   -1
100
AcDbLine
 10
273.8205417989677
 20
40.25568268668432
 11
273.8205417989677
 21
39.01068268668431
  0
LINE
  5
147
100
AcDbEntity
  8
INT
  6
ByLayer
 62
  256
370
   -1
100
AcDbLine
 10
265.1741552704809
 20
39.01068268668431
 11
273.8205417989677
 21
39.01068268668431
  0
ARC
  5
148
100
AcDbEntity
  8
INT
  6
ByLayer
 62
  256
370
   -1
100
AcDbCircle
 10
269.4973485347243
 20
45.65568268668432
 40
5.5
100
AcDbArc
 50
321.8165175667896
 51
578.1834824332097
  0
LINE
  5
149
100
AcDbEntity
  8
EXT
  6
ByLayer
 62
  256
370
   -1
100
AcDbLine
 10
50.20212744639821
 20
-30.00000000000003
 11
54.14734903472439
 21
-30.00000000000003
  0
LINE
  5
14A
100
AcDbEntity
  8
EXT
  6
ByLayer
 62
  256
370
   -1
100
AcDbLine
 10
61.1473490347244
 20
-30.00000000000003
 11
158.2021274463983
 21
-30.00000000000003
  0
LINE
  5
14B
100
AcDbEntity
  8
EXT
  6
ByLayer
 62
  256
370
   -1
100
AcDbLine
 10
174.8723485347244
 20
49.55568268668431
 11
174.8723485347244
 21
50.3056826866843
  0
ARC
  5
14C
100
AcDbEntity
  8
EXT
  6
ByLayer
 62
  256
370
   -1
100
AcDbCircle
 10
175.3723485347244
 20
50.3056826866843
 40
0.5
100
AcDbArc
 50
90
 51
180
  0
LINE
  5
14D
100
AcDbEntity
  8
EXT
  6
ByLayer
 62
  256
370
   -1
100
AcDbLine
 10
224.7323485347244
 20
49.55568268668431
 11
224.7323485347244
 21
50.30568268668431
  0
LINE
  5
14E
100
AcDbEntity
  8
EXT
  6
ByLayer
 62
  256
370
   -1
100
AcDbLine
 10
175.3723485347244
 20
50.80568268668431
 11
224.2323485347244
 21
50.80568268668431
  0
ARC
  5
14F
100
AcDbEntity
  8
EXT
  6
ByLayer
 62
  256
370
   -1
100
AcDbCircle
 10
224.2323485347244
 20
50.30568268668431
 40
0.5
100
AcDbArc
 50
0
 51
90
  0
LINE
  5
150
100
AcDbEntity
  8
EXT
  6
ByLayer
 62
  256
370
   -1
100
AcDbLine
 10
171.2021274463983
 20
49.55568268668431
 11
174.8723485347244
 21
49.55568268668431
  0
LINE
  5
151
100
AcDbEntity
  8
EXT
  6
ByLayer
 62
  256
370
   -1
100
AcDbLine
 10
224.7323485347244
 20
49.55568268668431
 11
226.0623485347243
 21
49.55568268668431
  0
LINE
  5
152
100
AcDbEntity
  8
EXT
  6
ByLayer
 62
  256
370
   -1
100
AcDbLine
 10
277.2021274463983
 20
40.25568268668432
 11
277.2021274463983
 21
31.24999999999997
  0
CIRCLE
  5
153
100
AcDbEntity
  8
INT
  6
ByLayer
 62
  256
370
   -1
100
AcDbCircle
 10
178.6473490347244
 20
-10.4999999999999
 40
3.5
  0
CIRCLE
  5
154
100
AcDbEntity
  8
INT
  6
ByLayer
 62
  256
370
   -1
100
AcDbCircle
 10
57.64734903472439
 20
-10.4999999999999
 40
3.5
  0
LINE
  5
155
100
AcDbEntity
  8
EXT
  6
ByLayer
 62
  256
370
   -1
100
AcDbLine
 10
156.2021274463983
 20
42.25568268668432
 11
156.2021274463983
 21
31.24999999999997
  0
LINE
  5
156
100
AcDbEntity
  8
EXT
  6
ByLayer
 62
  256
370
   -1
100
AcDbLine
 10
59.60612744639832
 20
44.3
 11
59.60612744639832
 21
42.3
  0
LINE
  5
157
100
AcDbEntity
  8
EXT
  6
ByLayer
 62
  256
370
   -1
100
AcDbLine
 10
59.60612744639832
 20
57.30000000000017
 11
59.60612744639832
 21
59.29999999999988
  0
LINE
  5
158
100
AcDbEntity
  8
EXT
  6
ByLayer
 62
  256
370
   -1
100
AcDbLine
 10
59.60612744639832
 20
42.3
 11
69.54512744639831
 21
42.3
  0
LINE
  5
159
100
AcDbEntity
  8
EXT
  6
ByLayer
 62
  256
370
   -1
100
AcDbLine
 10
59.60612744639832
 20
59.29999999999988
 11
69.54512744639831
 21
59.30000000000005
  0
LINE
  5
15A
100
AcDbEntity
  8
EXT
  6
ByLayer
 62
  256
370
   -1
100
AcDbLine
 10
69.54512744639831
 20
42.3
 11
69.54512744639831
 21
44.3
  0
LINE
  5
15B
100
AcDbEntity
  8
EXT
  6
ByLayer
 62
  256
370
   -1
100
AcDbLine
 10
69.54512744639831
 20
59.30000000000005
 11
69.54512744639831
 21
57.29999999999998
  0
LINE
  5
15C
100
AcDbEntity
  8
EXT
  6
ByLayer
 62
  256
370
   -1
100
AcDbLine
 10
79.42412744639833
 20
44.3
 11
79.42412744639833
 21
42.3
  0
LINE
  5
15D
100
AcDbEntity
  8
EXT
  6
ByLayer
 62
  256
370
   -1
100
AcDbLine
 10
79.42412744639833
 20
57.30000000000006
 11
79.42412744639833
 21
59.3
  0
LINE
  5
15E
100
AcDbEntity
  8
EXT
  6
ByLayer
 62
  256
370
   -1
100
AcDbLine
 10
79.42412744639833
 20
42.3
 11
89.36312744639832
 21
42.3
  0
LINE
  5
15F
100
AcDbEntity
  8
EXT
  6
ByLayer
 62
  256
370
   -1
100
AcDbLine
 10
79.42412744639833
 20
59.3
 11
89.36312744639832
 21
59.30000000000004
  0
LINE
  5
160
100
AcDbEntity
  8
EXT
  6
ByLayer
 62
  256
370
   -1
100
AcDbLine
 10
89.36312744639832
 20
42.3
 11
89.36312744639832
 21
44.3
  0
LINE
  5
161
100
AcDbEntity
  8
EXT
  6
ByLayer
 62
  256
370
   -1
100
AcDbLine
 10
89.36312744639832
 20
59.30000000000004
 11
89.36312744639832
 21
57.30000000000001
  0
LINE
  5
162
100
AcDbEntity
  8
EXT
  6
ByLayer
 62
  256
370
   -1
100
AcDbLine
 10
99.24212744639831
 20
44.3
 11
99.24212744639831
 21
42.3
  0
LINE
  5
163
100
AcDbEntity
  8
EXT
  6
ByLayer
 62
  256
370
   -1
100
AcDbLine
 10
99.24212744639831
 20
57.30000000000001
 11
99.24212744639831
 21
59.30000000000001
  0
LINE
  5
164
100
AcDbEntity
  8
EXT
  6
ByLayer
 62
  256
370
   -1
100
AcDbLine
 10
99.24212744639831
 20
42.3
 11
109.1811274463983
 21
42.3
  0
LINE
  5
165
100
AcDbEntity
  8
EXT
  6
ByLayer
 62
  256
370
   -1
100
AcDbLine
 10
99.24212744639831
 20
59.30000000000001
 11
109.1811274463983
 21
59.30000000000001
  0
LINE
  5
166
100
AcDbEntity
  8
EXT
  6
ByLayer
 62
  256
370
   -1
100
AcDbLine
 10
109.1811274463983
 20
42.3
 11
109.1811274463983
 21
44.3
  0
LINE
  5
167
100
AcDbEntity
  8
EXT
  6
ByLayer
 62
  256
370
   -1
100
AcDbLine
 10
109.1811274463983
 20
59.30000000000001
 11
109.1811274463983
 21
57.30000000000001
  0
LINE
  5
168
100
AcDbEntity
  8
EXT
  6
ByLayer
 62
  256
370
   -1
100
AcDbLine
 10
119.0601274463983
 20
44.3
 11
119.0601274463983
 21
42.3
  0
LINE
  5
169
100
AcDbEntity
  8
EXT
  6
ByLayer
 62
  256
370
   -1
100
AcDbLine
 10
119.0601274463983
 20
57.30000000000004
 11
119.0601274463983
 21
59.30000000000001
  0
LINE
  5
16A
100
AcDbEntity
  8
EXT
  6
ByLayer
 62
  256
370
   -1
100
AcDbLine
 10
119.0601274463983
 20
42.3
 11
128.9991274463983
 21
42.3
  0
LINE
  5
16B
100
AcDbEntity
  8
EXT
  6
ByLayer
 62
  256
370
   -1
100
AcDbLine
 10
119.0601274463983
 20
59.30000000000001
 11
128.9991274463983
 21
59.30000000000001
  0
LINE
  5
16C
100
AcDbEntity
  8
EXT
  6
ByLayer
 62
  256
370
   -1
100
AcDbLine
 10
128.9991274463983
 20
42.3
 11
128.9991274463983
 21
44.3
  0
LINE
  5
16D
100
AcDbEntity
  8
EXT
  6
ByLayer
 62
  256
370
   -1
100
AcDbLine
 10
128.9991274463983
 20
59.30000000000001
 11
128.9991274463983
 21
57.30000000000006
  0
LINE
  5
16E
100
AcDbEntity
  8
EXT
  6
ByLayer
 62
  256
370
   -1
100
AcDbLine
 10
138.8781274463983
 20
44.3
 11
138.8781274463983
 21
42.3
  0
LINE
  5
16F
100
AcDbEntity
  8
EXT
  6
ByLayer
 62
  256
370
   -1
100
AcDbLine
 10
138.8781274463983
 20
57.30000000000008
 11
138.8781274463983
 21
59.29999999999998
  0
LINE
  5
170
100
AcDbEntity
  8
EXT
  6
ByLayer
 62
  256
370
   -1
100
AcDbLine
 10
138.8781274463983
 20
42.3
 11
148.8171274463983
 21
42.3
  0
LINE
  5
171
100
AcDbEntity
  8
EXT
  6
ByLayer
 62
  256
370
   -1
100
AcDbLine
 10
138.8781274463983
 20
59.29999999999998
 11
148.8171274463983
 21
59.2999999999999
  0
LINE
  5
172
100
AcDbEntity
  8
EXT
  6
ByLayer
 62
  256
370
   -1
100
AcDbLine
 10
148.8171274463983
 20
42.3
 11
148.8171274463983
 21
44.3
  0
LINE
  5
173
100
AcDbEntity
  8
EXT
  6
ByLayer
 62
  256
370
   -1
100
AcDbLine
 10
148.8171274463983
 20
59.2999999999999
 11
148.8171274463983
 21
57.30000000000015
  0
LINE
  5
174
100
AcDbEntity
  8
EXT
  6
ByLayer
 62
  256
370
   -1
100
AcDbLine
 10
52.21212744639831
 20
44.3
 11
59.62112744639833
 21
44.3
  0
LINE
  5
175
100
AcDbEntity
  8
EXT
  6
ByLayer
 62
  256
370
   -1
100
AcDbLine
 10
52.21212744639831
 20
57.3
 11
59.62112744639833
 21
57.30000000000008
  0
LINE
  5
176
100
AcDbEntity
  8
EXT
  6
ByLayer
 62
  256
370
   -1
100
AcDbLine
 10
69.53012744639832
 20
44.3
 11
79.43912744639832
 21
44.3
  0
LINE
  5
177
100
AcDbEntity
  8
EXT
  6
ByLayer
 62
  256
370
   -1
100
AcDbLine
 10
69.53012744639832
 20
57.30000000000008
 11
79.43912744639832
 21
57.30000000000006
  0
LINE
  5
178
100
AcDbEntity
  8
EXT
  6
ByLayer
 62
  256
370
   -1
100
AcDbLine
 10
89.34812744639831
 20
44.3
 11
99.25712744639833
 21
44.3
  0
LINE
  5
179
100
AcDbEntity
  8
EXT
  6
ByLayer
 62
  256
370
   -1
100
AcDbLine
 10
89.34812744639831
 20
57.30000000000004
 11
99.25712744639833
 21
57.30000000000001
  0
LINE
  5
17A
100
AcDbEntity
  8
EXT
  6
ByLayer
 62
  256
370
   -1
100
AcDbLine
 10
109.1661274463983
 20
44.3
 11
119.0751274463983
 21
44.3
  0
LINE
  5
17B
100
AcDbEntity
  8
EXT
  6
ByLayer
 62
  256
370
   -1
100
AcDbLine
 10
109.1661274463983
 20
57.30000000000001
 11
119.0751274463983
 21
57.30000000000006
  0
LINE
  5
17C
100
AcDbEntity
  8
EXT
  6
ByLayer
 62
  256
370
   -1
100
AcDbLine
 10
128.9841274463983
 20
44.3
 11
138.8931274463983
 21
44.3
  0
LINE
  5
17D
100
AcDbEntity
  8
EXT
  6
ByLayer
 62
  256
370
   -1
100
AcDbLine
 10
128.9841274463983
 20
57.29999999999998
 11
138.8931274463983
 21
57.29999999999998
  0
LINE
  5
17E
100
AcDbEntity
  8
EXT
  6
ByLayer
 62
  256
370
   -1
100
AcDbLine
 10
148.8021274463983
 20
44.3
 11
156.2121274463983
 21
44.3
  0
LINE
  5
17F
100
AcDbEntity
  8
EXT
  6
ByLayer
 62
  256
370
   -1
100
AcDbLine
 10
148.8021274463983
 20
57.3000000000001
 11
156.2121274463983
 21
57.3
  0
LINE
  5
180
100
AcDbEntity
  8
EXT
  6
ByLayer
 62
  256
370
   -1
100
AcDbLine
 10
52.21212744639831
 20
44.3
 11
52.21212744639831
 21
57.3
  0
LINE
  5
181
100
AcDbEntity
  8
EXT
  6
ByLayer
 62
  256
370
   -1
100
AcDbLine
 10
156.2121274463983
 20
57.3
 11
156.2121274463983
 21
44.3
  0
LINE
  5
182
100
AcDbEntity
  8
EXT
  6
ByLayer
 62
  256
370
   -1
100
AcDbLine
 10
148.8171274463983
 20
59.29999999999988
 11
148.8171274463983
 21
59.29999999999988
  0
LINE
  5
183
100
AcDbEntity
  8
INT
  6
ByLayer
 62
  256
370
   -1
100
AcDbLine
 10
75.11234853472442
 20
49.8
 11
75.11234853472442
 21
51.8
  0
LINE
  5
184
100
AcDbEntity
  8
INT
  6
ByLayer
 62
  256
370
   -1
100
AcDbLine
 10
142.2023495347244
 20
51.8
 11
142.2023495347244
 21
49.8
  0
LINE
  5
185
100
AcDbEntity
  8
INT
  6
ByLayer
 62
  256
370
   -1
100
AcDbLine
 10
142.2023495347244
 20
51.8
 11
75.11234853472442
 21
51.8
  0
LINE
  5
186
100
AcDbEntity
  8
INT
  6
ByLayer
 62
  256
370
   -1
100
AcDbLine
 10
75.11234853472442
 20
49.8
 11
142.2023495347244
 21
49.8
  0
CIRCLE
  5
187
100
AcDbEntity
  8
INT
  6
ByLayer
 62
  256
370
   -1
100
AcDbCircle
 10
57.65734903472443
 20
50.8
 40
2.5
  0
LINE
  5
188
100
AcDbEntity
  8
EXT
  6
ByLayer
 62
  256
370
   -1
100
AcDbLine
 10
226.0623485347243
 20
40.25568268668432
 11
226.0623485347243
 21
39.25568268668432
  0
LINE
  5
189
100
AcDbEntity
  8
EXT
  6
ByLayer
 62
  256
370
   -1
100
AcDbLine
 10
226.0623485347243
 20
40.25568268668432
 11
230.1811274463983
 21
40.25568268668433
  0
LINE
  5
18A
100
AcDbEntity
  8
EXT
  6
ByLayer
 62
  256
370
   -1
100
AcDbLine
 10
226.0623485347243
 20
39.25568268668432
 11
174.2021274463983
 21
39.25568268668432
  0
LINE
  5
18B
100
AcDbEntity
  8
EXT
  6
ByLayer
 62
  256
370
   -1
100
AcDbLine
 10
173.2021274463983
 20
40.25568268668432
 11
173.2021274463983
 21
40.25568268668432
  0
ARC
  5
18C
100
AcDbEntity
  8
EXT
  6
ByLayer
 62
  256
370
   -1
100
AcDbCircle
 10
174.2021274463983
 20
40.25568268668432
 40
1
100
AcDbArc
 50
180
 51
270
  0
LINE
  5
18D
100
AcDbEntity
  8
EXT
  6
ByLayer
 62
  256
370
   -1
100
AcDbLine
 10
173.2021274463983
 20
40.25568268668432
 11
173.2021274463983
 21
31.24999999999997
  0
ENDSEC
  0
SECTION
  2
OBJECTS
  0
DICTIONARY
  5
C
330
0
100
AcDbDictionary
281
    1
  3
ACAD_GROUP
350
D
  0
DICTIONARY
  5
D
330
C
100
AcDbDictionary
281
    1
  0
ENDSEC
  0
EOF
